<?xml version="1.0" standalone="no"?>
<!DOCTYPE svg PUBLIC "-//W3C//DTD SVG 20010904//EN"
 "http://www.w3.org/TR/2001/REC-SVG-20010904/DTD/svg10.dtd">
<svg version="1.0" xmlns="http://www.w3.org/2000/svg"
 width="160.000000pt" height="160.000000pt" viewBox="0 0 160.000000 160.000000"
 preserveAspectRatio="xMidYMid meet">
<metadata>
Created by potrace 1.11, written by Peter Selinger 2001-2013
</metadata>
<g transform="translate(0.000000,160.000000) scale(0.100000,-0.100000)"
fill="#000000" stroke="none">
<path d="M100 1300 l0 -300 -50 0 -50 0 0 -50 0 -50 100 0 100 0 0 350 0 350
-50 0 -50 0 0 -300z"/>
<path d="M300 1200 l0 -400 -50 0 -50 0 0 -100 0 -100 -100 0 -100 0 0 -50 0
-50 300 0 300 0 0 550 0 550 -50 0 -50 0 0 -500 0 -500 -100 0 -100 0 0 50 0
50 50 0 50 0 0 450 0 450 -50 0 -50 0 0 -400z"/>
<path d="M700 1000 l0 -600 -50 0 -50 0 0 -50 0 -50 -50 0 -50 0 0 -50 0 -50
-50 0 -50 0 0 -100 0 -100 50 0 50 0 0 50 0 50 50 0 50 0 0 50 0 50 50 0 50 0
0 -100 0 -100 50 0 50 0 0 50 0 50 100 0 100 0 0 200 0 200 50 0 50 0 0 -250
0 -250 50 0 50 0 0 150 0 150 50 0 50 0 0 -150 0 -150 150 0 150 0 0 50 0 50
-100 0 -100 0 0 50 0 50 100 0 100 0 0 100 0 100 -50 0 -50 0 0 -50 0 -50
-100 0 -100 0 0 50 0 50 -50 0 -50 0 0 50 0 50 -50 0 -50 0 0 50 0 50 -50 0
-50 0 0 50 0 50 300 0 300 0 0 150 0 150 -50 0 -50 0 0 50 0 50 50 0 50 0 0
250 0 250 -50 0 -50 0 0 -200 0 -200 -50 0 -50 0 0 -50 0 -50 -50 0 -50 0 0
-50 0 -50 -50 0 -50 0 0 -100 0 -100 -100 0 -100 0 0 50 0 50 50 0 50 0 0 50
0 50 -50 0 -50 0 0 50 0 50 -50 0 -50 0 0 50 0 50 -50 0 -50 0 0 50 0 50 300
0 300 0 0 150 0 150 -50 0 -50 0 0 -100 0 -100 -100 0 -100 0 0 50 0 50 50 0
50 0 0 50 0 50 -100 0 -100 0 0 -100 0 -100 -100 0 -100 0 0 50 0 50 50 0 50
0 0 50 0 50 -100 0 -100 0 0 -600z m200 -350 l0 -450 -100 0 -100 0 0 50 0 50
50 0 50 0 0 400 0 400 50 0 50 0 0 -450z m600 250 l0 -100 -100 0 -100 0 0 50
0 50 50 0 50 0 0 50 0 50 50 0 50 0 0 -100z"/>
<path d="M0 750 l0 -50 50 0 50 0 0 50 0 50 -50 0 -50 0 0 -50z"/>
<path d="M0 350 l0 -50 50 0 50 0 0 -150 0 -150 50 0 50 0 0 50 0 50 50 0 50
0 0 50 0 50 -50 0 -50 0 0 50 0 50 -50 0 -50 0 0 50 0 50 -50 0 -50 0 0 -50z"/>
</g>
</svg>
