<?xml version="1.0" encoding="utf-8"?>
<!-- Generator: Adobe Illustrator 22.0.1, SVG Export Plug-In . SVG Version: 6.00 Build 0)  -->
<svg version="1.1" id="Layer_1" xmlns="http://www.w3.org/2000/svg" xmlns:xlink="http://www.w3.org/1999/xlink" x="0px" y="0px"
	 viewBox="0 0 117 41" xml:space="preserve">
<path style="fill: white" d="M36.9,14.1c2.1-2.8,4.9-5.7,3.8-7.9c-0.6-1.3-1.4-2.5-2.5-3.5c-1.1-1.1-2.2-1.9-3.5-2.5c-2.2-1-5.1,1.8-7.9,3.8
	c-1.8,1.3-4,2.1-6.4,2.1c-2.4,0-4.6-0.8-6.4-2.1C11.3,2,8.4-0.7,6.3,0.3C5,0.9,3.8,1.7,2.7,2.7C1.7,3.8,0.9,5,0.3,6.3
	c-1,2.2,1.8,5.1,3.8,7.9c1.3,1.8,2.1,4,2.1,6.4c0,2.4-0.8,4.6-2.1,6.4c-2.1,2.8-4.9,5.7-3.8,7.9c0.6,1.3,1.4,2.5,2.5,3.5
	c1.1,1.1,2.2,1.9,3.5,2.5c2.2,1,5.1-1.8,7.9-3.8c1.8-1.3,4-2.1,6.4-2.1c2.4,0,4.6,0.8,6.4,2.1c2.8,2.1,5.7,4.9,7.9,3.8
	c1.3-0.6,2.5-1.4,3.5-2.5c1.1-1.1,1.9-2.2,2.5-3.5c1-2.2-1.8-5.1-3.8-7.9c-1.3-1.8-2.1-4-2.1-6.3C34.8,18.1,35.5,15.9,36.9,14.1
	 M61.5,9.8c-3.2,0-5.1,2-5.1,4.7c0,3,1.8,4.7,5.1,4.7c3,0,5-1.7,5-4.6C66.5,11.6,64.7,9.8,61.5,9.8 M63.8,29.7h-4.2
	c-0.4,0-0.9,0-1.2,0c-1.5,0.9-2.5,2.2-2.5,3.8c0,2.4,2.3,3.8,5.5,3.8c4.2,0,6.6-1.8,6.6-4.3C68,30.9,66.7,29.7,63.8,29.7 M60.6,40.9
	c-5.9,0-9.6-2.3-9.6-6.6c0-2.5,1.7-4.7,3.6-5.7c-1.4-0.7-2.2-1.9-2.2-3.4c0-1.6,1-3.2,2.6-3.9c-2.2-1.2-3.4-3.5-3.4-6.4
	c0-4.8,3.6-8.8,10.1-8.8c1.4,0,2.5,0.2,3.7,0.5h7.6v3.8h-3.5c1,0.8,1.5,2.1,1.5,3.8c0,4.9-3.4,8.4-9.8,8.4c-0.9,0-1.9-0.1-2.6-0.2
	c-0.9,0.4-1.3,1-1.3,1.7c0,1.1,1,1.6,3.7,1.6h3.9c4.9,0,7.7,2.3,7.7,6.5C72.8,37.1,67.9,40.9,60.6,40.9 M83.8,9.8
	c-2.7,0-4.6,2-5.1,5h9.6C88.4,11.8,86.7,9.8,83.8,9.8 M93.1,18.3H78.7c-0.1,5.2,2.2,7.6,6.7,7.6c2.3,0,4.7-0.5,6.6-1.5l0.4,3.9
	c-2.3,1-5,1.5-7.8,1.5c-7,0-10.9-3.6-10.9-11.6c0-6.8,3.7-11.9,10.3-11.9c6.5,0,9.2,4.4,9.2,9.8C93.2,16.7,93.2,17.4,93.1,18.3
	 M105.7,10.3c-3,0-5.8,2.3-5.8,7.5c0,5.1,2,7.8,5.8,7.8c3.1,0,5.8-2.5,5.8-7.7C111.5,13.1,109.6,10.3,105.7,10.3 M105.2,29.7
	c-6.3,0-10.4-3.5-10.4-11.5c0-6.8,4.4-12,11.3-12c6,0,10.3,3.4,10.3,11.3C116.5,24.5,111.9,29.7,105.2,29.7"/>
</svg>
