<svg xmlns="http://www.w3.org/2000/svg"><defs><font horiz-adv-x="1227"><font-face alphabetic="0" ascent="2146" descent="-555" panose-1="0 0 0 0 0 0 0 0 0 0" units-per-em="2048"/><glyph glyph-name="space" horiz-adv-x="1229" unicode=" "/><glyph d="M654 435H534V1456H654V435ZM514 72Q514 107 537 131T599 156Q639 156 662 132T686 72Q686 38 662 15T599-8Q560-8 537 15T514 72Z" glyph-name="exclam" horiz-adv-x="1229" unicode="!"/><glyph d="M509 1410 493 1090H402L406 1400 405 1536H510L509 1410ZM812 1410 796 1090H705L710 1400 709 1536H814L812 1410Z" glyph-name="quotedbl" horiz-adv-x="1229" unicode="&quot;"/><glyph d="M729 410H415L338 0H239L316 410H61V503H333L416 944H137V1040H434L513 1456H612L533 1040H848L927 1456H1026L947 1040H1177V944H929L846 503H1102V410H828L751 0H652L729 410ZM432 503H747L830 944H515L432 503Z" glyph-name="numbersign" horiz-adv-x="1229" unicode="#"/><glyph d="M961 359Q961 423 936 471T867 557 764 622 636 674Q553 701 480 736T351 820 263 936 230 1095Q230 1180 258 1247T335 1363 453 1439 600 1475V1677H702V1474Q788 1466 855 1432T970 1341 1042 1204 1070 1028H951Q950 1103 929 1166T869 1274 775 1344 649 1370Q586 1370 532 1352T437 1299 373 1214 349 1097Q349 1030 373 982T441 897 545 833 677 780Q761 752 834 718T962 634 1049 519 1081 361Q1081 275 1052 208T971 93 851 17 700-18V-208H597V-19Q512-13 437 15T304 97 213 230 177 418H297Q298 330 327 267T403 163 512 103 642 85Q706 85 764 103T865 156 935 242 961 359Z" glyph-name="dollar" horiz-adv-x="1229" unicode="$"/><glyph d="M44 1184Q44 1239 60 1291T108 1385 187 1452 297 1477Q360 1477 407 1452T486 1385 534 1292 551 1184V1107Q551 1053 535 1001T487 908 408 842 299 817Q236 817 189 842T109 907 61 1000 44 1107V1184ZM140 1107Q140 1071 149 1035T177 969 227 922 299 904Q341 904 370 922T418 970 446 1035 455 1107V1184Q455 1221 446 1257T418 1323 369 1371 297 1390Q255 1390 226 1372T177 1324 149 1257 140 1184V1107ZM673 348Q674 402 690 454T738 548 817 614 927 639Q990 639 1037 614T1116 548 1164 455 1182 348V270Q1181 215 1165 163T1117 70 1038 4 929-21Q866-21 819 4T739 70 691 163 673 270V348ZM770 270Q770 233 779 197T807 131 856 83 929 65Q971 65 1000 83T1048 130 1076 196 1085 270V348Q1085 385 1076 421T1049 487 1000 534 927 552Q884 552 855 534T806 487 779 422 770 348V270ZM357 159 280 205 874 1293 951 1247 357 159Z" glyph-name="percent" horiz-adv-x="1229" unicode="%"/><glyph d="M417 791Q384 834 357 877T309 964 277 1053 265 1147Q265 1220 287 1281T352 1385 454 1453 588 1477Q652 1477 704 1455T794 1393 852 1302 873 1191Q873 1142 857 1100T815 1020 753 949 680 885L562 785 934 315Q978 387 1002 473T1028 651H1138Q1138 530 1104 424T1004 227L1184 0H1041L928 142Q851 68 758 24T555-20Q463-20 386 7T254 84 167 204 135 362Q135 429 157 487T216 597 302 695 408 784L417 791ZM555 81Q649 80 727 118T866 222L488 701 478 713 441 681Q351 604 303 522T255 362Q255 299 277 247T339 159 434 102 555 81ZM386 1149Q385 1075 418 1004T502 862L634 971Q694 1017 726 1072T760 1191Q760 1228 748 1261T713 1319 659 1360 588 1375Q539 1375 502 1357T439 1307 400 1235 386 1149Z" glyph-name="ampersand" horiz-adv-x="1229" unicode="&amp;"/><glyph d="M628 1395 610 1090H516L521 1386V1536H628V1395Z" glyph-name="quotesingle" horiz-adv-x="1229" unicode="&apos;"/><glyph d="M381 588Q381 760 416 922T511 1222 654 1466 833 1632L862 1551Q777 1490 710 1390T597 1164 526 891 501 591V571Q501 418 525 272T596-1 710-229 862-393L833-470Q736-409 654-304T511-61 416 238 381 573V588Z" glyph-name="parenleft" horiz-adv-x="1229" unicode="("/><glyph d="M823 573Q823 400 789 239T694-60 551-303 371-470L342-393Q427-332 494-231T607-3 678 271 703 571V591Q703 745 678 892T605 1166 491 1393 342 1555L371 1632Q467 1572 549 1466T692 1222 788 922 823 588V573Z" glyph-name="parenright" horiz-adv-x="1229" unicode=")"/><glyph d="M570 853 184 964 220 1077 600 935 589 1342H707L689 932 1062 1078 1100 964 713 848 981 528 883 457 639 799 404 460 308 528 570 853Z" glyph-name="asterisk" horiz-adv-x="1229" unicode="*"/><glyph d="M673 740H1117V623H673V146H553V623H119V740H553V1206H673V740Z" glyph-name="plus" horiz-adv-x="1229" unicode="+"/><glyph d="M601 35Q601-9 592-53T565-140 521-222 461-295L385-247Q473-122 473 32V188H601V35Z" glyph-name="comma" horiz-adv-x="1229" unicode=","/><glyph d="M970 601H229V702H970V601Z" glyph-name="hyphen" horiz-adv-x="1230" unicode="-"/><glyph d="M542 85Q542 127 569 156T644 186Q692 186 719 157T747 85Q747 43 720 16T644-12Q597-12 570 15T542 85Z" glyph-name="period" horiz-adv-x="1229" unicode="."/><glyph d="M391-125H279L887 1456H999L391-125Z" glyph-name="slash" horiz-adv-x="1229" unicode="/"/><glyph d="M1075 576Q1075 454 1048 346T965 156 823 28 618-20Q500-20 414 27T271 156 187 345 158 576V879Q159 1001 186 1109T269 1300 412 1429 616 1477Q735 1477 821 1430T964 1301 1047 1110 1075 879V576ZM278 558Q278 517 281 480L938 1075Q924 1139 899 1194T835 1289 741 1352 616 1375Q523 1375 459 1336T354 1231 296 1079 278 899V558ZM955 899Q955 932 952 964L298 370Q313 308 339 255T404 164 496 103 618 81Q711 81 775 120T879 226 937 378 955 558V899Z" glyph-name="zero" horiz-adv-x="1229" unicode="0"/><glyph d="M742 0H622V1305L219 1132V1245L725 1456H742V0Z" glyph-name="one" horiz-adv-x="1229" unicode="1"/><glyph d="M1043 0H130V92L607 633Q660 693 704 748T781 856 832 964 850 1075Q850 1141 828 1196T766 1290 669 1352 544 1374Q467 1374 407 1348T306 1277 242 1171 218 1036H98Q99 1126 131 1206T221 1346 360 1441 544 1476Q640 1476 718 1448T853 1367 939 1241 970 1078Q970 1006 945 938T879 805 787 679 684 560L277 101H1043V0Z" glyph-name="two" horiz-adv-x="1229" unicode="2"/><glyph d="M402 793H523Q593 794 655 813T763 868 837 956 864 1076Q864 1147 842 1202T780 1296 684 1354 558 1374Q489 1374 431 1353T331 1292 264 1198 238 1074H118Q120 1160 153 1233T245 1361 383 1445 558 1476Q651 1476 729 1449T863 1370 951 1243 983 1072Q983 1018 966 969T915 877 835 801 730 746Q866 708 938 616T1010 395Q1010 297 976 220T881 90 739 9 563-20Q467-20 383 8T236 90 136 221 97 395H216Q218 323 245 265T318 166 427 103 563 81Q634 81 694 101T798 160 866 257 891 391Q891 471 862 527T782 620 665 673 523 691H402V793Z" glyph-name="three" horiz-adv-x="1229" unicode="3"/><glyph d="M888 469H1116V368H888V0H769V368H84V436L757 1456H888V469ZM228 469H769V1305L712 1204 228 469Z" glyph-name="four" horiz-adv-x="1229" unicode="4"/><glyph d="M260 746 331 1456H1059V1340H433L383 853Q437 890 507 911T657 933Q756 933 836 899T972 802 1058 653 1088 464Q1088 363 1062 275T983 122 848 18 655-20Q564-20 487 7T351 86 256 213 209 383H325Q334 312 360 256T428 161 527 102 655 81Q735 81 794 110T892 190 949 311 968 462Q968 538 946 604T880 719 776 796 636 824Q590 824 552 818T480 799 416 766 355 719L260 746Z" glyph-name="five" horiz-adv-x="1229" unicode="5"/><glyph d="M863 1467V1358H845Q699 1357 594 1309T420 1181 315 994 272 773Q300 813 339 847T424 905 524 942 633 956Q738 956 816 916T947 809 1026 656 1052 477Q1052 381 1025 292T943 133 808 22 621-20Q507-20 420 25T272 145 181 316 149 514V643Q149 747 165 848T215 1041 303 1210 434 1344 613 1433 845 1467H863ZM614 853Q557 853 503 835T402 785 322 708 270 607V512Q270 418 296 339T368 202 479 113 621 82Q697 82 755 115T853 202 913 327 934 473Q934 548 914 616T853 737 753 821 614 853Z" glyph-name="six" horiz-adv-x="1229" unicode="6"/><glyph d="M1082 1387 460 0H335L953 1349H125V1456H1082V1387Z" glyph-name="seven" horiz-adv-x="1229" unicode="7"/><glyph d="M1066 1081Q1066 1022 1048 970T997 876 921 801 823 747Q883 726 934 692T1023 612 1082 509 1103 386Q1103 287 1066 211T966 84 818 7 641-20Q547-20 463 6T315 83 214 211 177 386Q177 452 197 509T255 611 342 691 453 747Q400 768 357 800T281 875 232 970 214 1081Q214 1174 246 1247T336 1371 470 1449 637 1476Q726 1476 804 1449T941 1371 1032 1247 1066 1081ZM983 385Q983 457 955 515T880 613 770 674 639 696Q570 696 508 675T399 613 325 515 297 385Q297 311 324 254T398 159 507 101 641 81Q710 81 772 101T881 159 955 254 983 385ZM946 1082Q946 1147 921 1201T854 1293 755 1353 637 1374Q574 1374 519 1354T423 1296 358 1204 334 1082Q334 1015 358 963T424 874 521 818 639 798Q701 798 756 817T854 873 921 963 946 1082Z" glyph-name="eight" horiz-adv-x="1229" unicode="8"/><glyph d="M382 97Q535 98 639 144T809 270 905 454 938 678Q912 634 876 598T793 534 692 492 573 477Q469 477 391 519T261 631 182 787 155 965Q155 1063 183 1154T267 1317 405 1432 595 1476Q721 1476 808 1427T951 1295 1032 1109 1058 895V779Q1058 679 1045 582T1000 398 919 236 793 107 616 21 382-11H355L356 97H382ZM588 580Q648 580 703 599T805 654 886 738 939 845V906Q939 1003 917 1088T852 1236 745 1336 597 1373Q519 1373 459 1339T358 1248 295 1120 273 970Q273 898 293 828T353 703 452 614 588 580Z" glyph-name="nine" horiz-adv-x="1229" unicode="9"/><glyph d="M596 85Q596 127 623 156T698 186Q746 186 773 157T801 85Q801 43 774 16T698-12Q651-12 624 15T596 85ZM596 961Q596 1003 623 1032T698 1062Q746 1062 773 1033T801 961Q801 919 774 892T698 864Q651 864 624 891T596 961Z" glyph-name="colon" horiz-adv-x="1229" unicode=":"/><glyph d="M592 961Q592 1003 619 1032T694 1062Q742 1062 769 1033T797 961Q797 919 770 892T694 864Q647 864 620 891T592 961ZM744 35Q744-9 735-53T708-140 664-222 604-295L528-247Q616-122 616 32V188H744V35Z" glyph-name="semicolon" horiz-adv-x="1229" unicode=";"/><glyph d="M302 656 1023 356V230L166 609V705L1023 1083V958L302 656Z" glyph-name="less" horiz-adv-x="1229" unicode="&lt;"/><glyph d="M1066 812H174V918H1066V812ZM1066 401H174V507H1066V401Z" glyph-name="equal" horiz-adv-x="1229" unicode="="/><glyph d="M918 660 183 962V1085L1057 707V611L183 232V355L918 660Z" glyph-name="greater" horiz-adv-x="1229" unicode="&gt;"/><glyph d="M540 404Q541 467 549 513T576 599 624 673 700 750Q739 787 775 825T841 906 887 997 904 1102Q904 1163 885 1213T831 1297 744 1351 629 1370Q570 1370 519 1353T428 1304 366 1225 340 1116H220Q223 1198 255 1264T341 1378 469 1450 629 1476Q720 1476 793 1450T917 1374 996 1257 1024 1103Q1024 1034 1003 974T946 860 865 760 771 672Q738 642 717 613T683 552 665 483 660 404H540ZM517 72Q517 107 540 131T602 156Q641 156 665 132T689 72Q689 38 665 15T602-8Q563-8 540 15T517 72Z" glyph-name="question" horiz-adv-x="1229" unicode="?"/><glyph d="M1165 775Q1163 730 1157 677T1139 571 1107 469 1058 382 990 322 901 299Q864 299 836 312T789 348 757 401 738 464Q720 431 698 401T650 349 592 313 526 299Q485 299 455 316T404 363 370 432 350 514 342 601 344 685Q352 784 377 871T445 1022 548 1124 686 1162Q718 1162 744 1154T791 1134 830 1105 865 1072L864 1071 816 567Q814 533 817 500T830 441 860 398 909 382Q942 382 967 400T1012 449 1045 520 1066 604 1078 692 1083 775Q1088 910 1065 1020T991 1209 861 1330 673 1373Q570 1373 478 1327T314 1192 199 976 150 684Q145 562 166 452T241 259 389 128 622 79Q653 79 687 84T755 99 818 122 873 152L900 71Q873 52 839 37T767 11 691-5 619-11Q509-11 424 15T276 87 171 198 103 340 69 504 62 684Q65 787 85 885T141 1069 229 1228 348 1353 498 1435 676 1464Q815 1464 910 1409T1063 1260 1145 1041 1165 775ZM432 685Q430 658 430 626T433 562 444 499 464 446 496 408 541 394Q576 394 605 411T658 457 701 523 736 600L780 1040Q762 1054 740 1063T688 1073Q622 1073 577 1039T501 950 455 826 432 685Z" glyph-name="at" horiz-adv-x="1229" unicode="@"/><glyph d="M905 406H351L222 0H101L575 1456H683L1153 0H1033L905 406ZM385 513H871L629 1279 385 513Z" glyph-name="A" horiz-adv-x="1229" unicode="A"/><glyph d="M194 0V1456H592Q680 1455 763 1433T912 1364 1016 1246 1055 1075Q1055 1013 1036 964T985 876 908 809 813 761Q876 746 929 715T1022 639 1083 535 1106 410Q1107 313 1070 238T970 110 825 29 652 0H194ZM314 700V104H655Q721 105 781 126T886 187 958 281 985 408Q985 477 960 530T890 621 787 678 664 700H314ZM314 803H607Q670 804 729 821T833 872 907 957 935 1078Q935 1151 906 1202T829 1286 720 1334 595 1351H314V803Z" glyph-name="B" horiz-adv-x="1229" unicode="B"/><glyph d="M1099 442Q1087 344 1050 260T952 113 808 15 620-20Q533-20 463 6T338 79 243 187 177 320 139 469 125 622V833Q126 909 138 986T177 1134 243 1268 337 1376 462 1449 620 1476Q726 1476 809 1441T954 1344 1051 1196 1099 1011H980Q968 1086 942 1152T871 1267 765 1345 620 1374Q549 1374 494 1350T398 1286 327 1193 280 1079 254 957 245 835V622Q245 563 253 500T280 377 327 264 397 170 494 105 620 81Q704 81 766 108T872 185 942 300 980 442H1099Z" glyph-name="C" horiz-adv-x="1229" unicode="C"/><glyph d="M177 0V1456H529Q669 1454 779 1401T965 1259 1081 1052 1123 799V656Q1121 522 1081 404T965 196 779 55 529 0H177ZM297 1354V101H529Q646 103 734 149T882 271 971 447 1003 656V802Q1002 910 972 1009T882 1184 735 1306 529 1354H297Z" glyph-name="D" horiz-adv-x="1229" unicode="D"/><glyph d="M962 698H320V104H1060V0H201V1456H1056V1351H320V802H962V698Z" glyph-name="E" horiz-adv-x="1229" unicode="E"/><glyph d="M974 680H330V0H210V1456H1071V1351H330V785H974V680Z" glyph-name="F" horiz-adv-x="1229" unicode="F"/><glyph d="M1097 173Q1054 122 1002 85T892 25 769-9 639-20Q552-19 480 7T349 80 248 189 177 324 133 474 117 631V835Q118 911 131 988T172 1136 241 1269 338 1377 464 1449 622 1476Q719 1476 801 1445T946 1357 1046 1221 1095 1046H977Q963 1116 935 1176T862 1279 759 1346 623 1371Q553 1371 497 1348T399 1285 326 1193 276 1081 247 959 237 837V631Q238 570 248 506T280 382 333 267 409 173 511 109 640 84Q685 83 733 88T826 108 911 148 980 211L981 587H636V691H1095L1097 173Z" glyph-name="G" horiz-adv-x="1229" unicode="G"/><glyph d="M1069 0H956V698H272V0H159V1456H272V802H956V1456H1069V0Z" glyph-name="H" horiz-adv-x="1229" unicode="H"/><glyph d="M193 1456H1036V1348H671V106H1036V0H193V106H547V1348H193V1456Z" glyph-name="I" horiz-adv-x="1229" unicode="I"/><glyph d="M902 1456H1024V442Q1022 344 988 260T894 114 750 16 568-20Q469-20 388 10T247 97 153 233 111 410H233Q236 338 261 278T329 174 433 108 568 84Q644 84 705 113T809 191 876 305 902 442V1456Z" glyph-name="J" horiz-adv-x="1229" unicode="J"/><glyph d="M508 721 321 522V0H200V1456H321V677L500 883 992 1456H1141L589 809 1181 0H1035L508 721Z" glyph-name="K" horiz-adv-x="1229" unicode="K"/><glyph d="M340 104H1081V0H220V1456H340V104Z" glyph-name="L" horiz-adv-x="1229" unicode="L"/><glyph d="M321 1456 614 632 926 1456H1083V0H966V645L975 1296 652 438H574L274 1282 284 645V0H167V1456H321Z" glyph-name="M" horiz-adv-x="1229" unicode="M"/><glyph d="M1068 0H949L281 1229 280 0H161V1456H280L948 229 949 1456H1068V0Z" glyph-name="N" horiz-adv-x="1229" unicode="N"/><glyph d="M1103 631Q1102 557 1090 480T1053 330 988 194 896 83 772 8 615-20Q529-20 459 7T335 82 241 194 176 330 138 480 124 631V823Q125 897 137 974T175 1124 239 1261 333 1373 456 1448 613 1476Q700 1476 770 1449T894 1374 988 1262 1052 1126 1090 976 1103 823V631ZM985 825Q984 883 976 946T950 1069 904 1183 834 1279 738 1344 613 1368Q543 1368 489 1344T393 1278 324 1183 277 1068 251 945 242 825V631Q243 573 251 511T278 388 324 273 394 177 490 112 615 87Q686 87 740 111T836 177 905 272 951 387 976 510 985 631V825Z" glyph-name="O" horiz-adv-x="1229" unicode="O"/><glyph d="M336 600V0H216V1456H674Q770 1454 853 1424T999 1339 1098 1204 1134 1025Q1134 925 1098 847T1000 714 853 630 674 600H336ZM336 701H674Q746 702 808 725T916 789 988 889 1015 1023Q1015 1098 989 1159T917 1262 809 1328 674 1354H336V701Z" glyph-name="P" horiz-adv-x="1229" unicode="P"/><glyph d="M1127 640Q1126 557 1111 473T1065 311 987 168 874 57L1124-178 1041-254 765 3Q732-8 696-14T618-20Q529-20 457 7T328 82 230 194 161 332 121 484 106 640V814Q107 891 120 970T160 1123 228 1261 326 1373 455 1448 616 1476Q705 1476 777 1449T906 1374 1004 1262 1072 1124 1113 971 1127 814V640ZM1008 816Q1007 877 999 942T971 1068 921 1183 848 1279 747 1344 616 1368Q543 1368 487 1344T387 1279 313 1183 264 1067 235 942 225 816V640Q226 579 235 515T263 389 313 273 387 177 487 111 618 87Q691 87 748 111T849 176 922 272 971 388 998 514 1008 640V816Z" glyph-name="Q" horiz-adv-x="1229" unicode="Q"/><glyph d="M682 609H322V0H204V1456H615Q711 1454 796 1425T944 1342 1044 1208 1081 1027Q1081 954 1060 894T1000 786 910 700 794 637L1126 13V0H1001L682 609ZM322 710H639Q707 712 766 736T868 801 936 901 961 1028Q961 1105 934 1165T861 1266 751 1330 614 1354H322V710Z" glyph-name="R" horiz-adv-x="1229" unicode="R"/><glyph d="M990 358Q990 409 975 449T932 522 868 578 791 622 707 656 624 684Q573 700 521 719T419 764 326 822 250 896 199 987 180 1100Q180 1191 220 1261T326 1379 472 1451 637 1476Q730 1476 814 1446T961 1360 1063 1227 1104 1052H983Q975 1123 948 1181T876 1282 771 1347 637 1371Q576 1371 517 1355T410 1305 333 1221 303 1102Q303 1029 337 978T425 892 541 834 662 793Q715 777 769 757T873 709 968 649 1044 572 1095 477 1114 360Q1114 264 1073 193T965 75 815 4 645-20Q549-20 459 8T299 90 184 223 137 405H258Q267 327 299 267T383 166 501 105 645 84Q709 84 770 100T881 149 960 234 990 358Z" glyph-name="S" horiz-adv-x="1229" unicode="S"/><glyph d="M1139 1351H675V0H558L559 1351H94V1456H1139V1351Z" glyph-name="T" horiz-adv-x="1229" unicode="T"/><glyph d="M1071 1456 1072 469Q1070 370 1038 281T946 126 803 20 615-20Q510-20 426 19T283 125 191 281 157 469L159 1456H272L275 469Q276 394 299 325T365 202 471 116 615 84Q696 84 758 116T863 201 928 324 953 469L955 1456H1071Z" glyph-name="U" horiz-adv-x="1229" unicode="U"/><glyph d="M609 181 1006 1456H1133L666 0H555L88 1456H215L609 181Z" glyph-name="V" horiz-adv-x="1229" unicode="V"/><glyph d="M348 330 356 228 368 330 580 1456H684L896 330 908 225 917 330 1066 1456H1178L973 0H854L632 1214 409 0H290L85 1456H198L348 330Z" glyph-name="W" horiz-adv-x="1229" unicode="W"/><glyph d="M629 834 998 1456H1139L700 738 1153 0H1013L631 642 248 0H107L560 738 121 1456H262L629 834Z" glyph-name="X" horiz-adv-x="1229" unicode="X"/><glyph d="M600 662 989 1456H1125L658 548 656 0H544L542 548 75 1456H214L600 662Z" glyph-name="Y" horiz-adv-x="1229" unicode="Y"/><glyph d="M266 104H1060V0H130L128 93 893 1351H152V1456H1032L1033 1368 266 104Z" glyph-name="Z" horiz-adv-x="1229" unicode="Z"/><glyph d="M798 1562H567V-210H798V-312H452V1664H798V1562Z" glyph-name="bracketleft" horiz-adv-x="1229" unicode="["/><glyph d="M256 1456H369L977-125H864L256 1456Z" glyph-name="backslash" horiz-adv-x="1229" unicode="\"/><glyph d="M430 1664H776V-312H430V-210H660V1562H430V1664Z" glyph-name="bracketright" horiz-adv-x="1229" unicode="]"/><glyph d="M361 667H245L570 1456H659L983 667H867L614 1293 613 1295V1293L361 667Z" glyph-name="asciicircum" horiz-adv-x="1229" unicode="^"/><glyph d="M1054-101H173V0H1054V-101Z" glyph-name="underscore" horiz-adv-x="1229" unicode="_"/><glyph d="M775 1232H671L453 1498H597L775 1232Z" glyph-name="grave" horiz-adv-x="1229" unicode="`"/><glyph d="M937 0Q926 33 920 73T912 156Q881 118 840 86T751 31 646-6 529-20Q453-20 388 2T274 64 198 160 170 287Q170 380 211 445T322 550 484 610 677 629H911V752Q910 813 887 859T825 937 731 985 612 1001Q554 1001 502 986T409 943 343 875 316 783L196 784Q199 853 232 911T323 1011 455 1078 617 1102Q703 1102 778 1080T909 1014 997 904 1031 750V226Q1031 172 1040 117T1064 12L1065 0H937ZM542 86Q605 85 662 101T768 145 853 213 911 300V537H693Q614 537 541 525T412 486 323 412 289 297Q289 248 309 209T363 143 443 101 542 86Z" glyph-name="a" horiz-adv-x="1229" unicode="a"/><glyph d="M1072 530Q1072 425 1047 326T969 150 836 27 646-20Q542-20 458 22T316 145L311 0H199V1536H319V931Q374 1012 456 1057T644 1102Q755 1102 836 1057T969 935 1046 759 1072 551V530ZM951 551Q951 632 934 712T879 855 778 958 621 998Q567 998 520 982T435 938 367 871 319 785V280Q339 236 369 200T439 138 525 98 623 84Q714 84 776 123T877 225 933 369 951 530V551Z" glyph-name="b" horiz-adv-x="1229" unicode="b"/><glyph d="M632 81Q692 81 746 98T843 149 911 228 942 334H1057Q1053 257 1017 192T923 80 790 7 632-20Q513-20 425 25T279 145 191 317 161 520V562Q161 667 190 764T278 937 425 1057 631 1102Q721 1102 797 1074T930 994 1020 872 1057 717H942Q939 778 914 830T848 920 752 979 631 1000Q537 1000 471 962T362 862 301 722 281 562V520Q281 438 300 359T362 219 470 119 632 81Z" glyph-name="c" horiz-adv-x="1229" unicode="c"/><glyph d="M157 551Q157 659 184 758T264 934 398 1056 588 1102Q691 1102 772 1058T909 935V1536H1028V0H916L911 141Q854 63 771 22T586-20Q479-20 399 26T265 149 184 325 157 530V551ZM278 530Q278 449 295 369T352 226 454 123 608 84Q659 84 704 97T788 134 857 193 909 271V795Q889 840 860 877T792 941 708 983 610 998Q518 998 455 959T353 856 296 712 278 551V530Z" glyph-name="d" horiz-adv-x="1229" unicode="d"/><glyph d="M655-20Q542-20 449 22T290 136 187 304 149 510V553Q150 669 187 769T290 943 443 1059 632 1102Q740 1102 823 1063T962 957 1048 799 1079 606V533H269V510Q270 425 298 348T377 211 500 117 660 81Q760 80 841 118T979 228L1055 171Q1025 129 984 94T893 33 782-6 655-20ZM632 1000Q559 1000 498 973T391 896 315 781 274 635H959V648Q957 715 935 778T871 891 769 970 632 1000Z" glyph-name="e" horiz-adv-x="1229" unicode="e"/><glyph d="M1028 984H597L599 0H475L476 984H181V1082H477V1168Q478 1279 511 1355T602 1478 736 1546 900 1567Q957 1567 1011 1560T1121 1540L1106 1438Q1064 1449 1015 1456T912 1463Q847 1463 791 1449T691 1402 623 1311 597 1168V1082H1028V984Z" glyph-name="f" horiz-adv-x="1230" unicode="f"/><glyph d="M159 551Q159 659 185 758T264 934 398 1056 589 1102Q693 1102 775 1058T913 932L918 1082H1030V19Q1029-80 999-163T913-305 776-398 596-431Q548-431 496-420T394-386 299-329 219-246L286-174Q415-330 588-330 665-330 725-305T825-235 887-126 910 14V137Q853 61 771 21T587-20Q479-20 399 26T265 149 186 325 159 530V551ZM279 530Q279 449 296 369T353 226 455 123 609 84Q660 84 706 97T790 136 859 196 910 276V791Q890 836 861 874T794 939 710 982 611 998Q519 998 456 959T354 856 297 712 279 551V530Z" glyph-name="g" horiz-adv-x="1229" unicode="g"/><glyph d="M313 873Q370 977 465 1039T682 1102Q771 1102 839 1075T954 995 1025 866 1050 691V0H930V691Q930 763 913 820T862 916 775 977 653 998Q596 998 544 980T448 930 370 855 313 759V0H193V1536H313V873Z" glyph-name="h" horiz-adv-x="1229" unicode="h"/><glyph d="M221 1082H723V106H1091V0H221V106H603V975H221V1082ZM568 1378Q568 1415 589 1442T659 1469Q707 1469 728 1442T750 1378Q750 1343 729 1317T659 1290Q610 1290 589 1316T568 1378Z" glyph-name="i" horiz-adv-x="1229" unicode="i"/><glyph d="M301 1082H811V0Q811-102 784-183T704-320 575-407 402-437Q345-437 298-434T195-420L203-321Q221-324 247-326T301-330 354-332 394-333Q454-333 508-316T602-260 667-157 691 0V975H301V1082ZM652 1379Q652 1416 672 1442T742 1469Q790 1469 812 1443T834 1379Q834 1344 812 1318T742 1291Q693 1291 673 1317T652 1379Z" glyph-name="j" horiz-adv-x="1229" unicode="j"/><glyph d="M490 547 337 410V0H216V1536H337V548L466 675 905 1082H1058L575 626 1108 0H954L490 547Z" glyph-name="k" horiz-adv-x="1229" unicode="k"/><glyph d="M221 1536H725V106H1091V0H221V106H605V1429H221V1536Z" glyph-name="l" horiz-adv-x="1229" unicode="l"/><glyph d="M197 1082 200 961Q233 1024 290 1062T436 1102Q482 1102 517 1092T579 1062 623 1017 652 959Q686 1020 745 1060T894 1102Q964 1102 1011 1078T1087 1013 1128 918 1141 804L1140 0H1028L1027 804Q1027 839 1020 874T996 937 947 982 866 998Q816 997 782 982T725 943 690 890 671 830L670 0H558L557 815Q557 849 550 882T526 941 477 983 398 998Q350 997 317 983T261 946 225 892 203 828L202 0H89V1082H197Z" glyph-name="m" horiz-adv-x="1229" unicode="m"/><glyph d="M303 1082 312 879Q369 980 464 1040T680 1102Q858 1102 952 996T1047 693V0H927V691Q926 840 859 919T651 998Q593 998 541 979T445 927 368 849 313 751V0H193V1082H303Z" glyph-name="n" horiz-adv-x="1229" unicode="n"/><glyph d="M131 557Q132 667 165 766T259 939 410 1058 613 1102Q727 1102 816 1058T968 940 1063 766 1097 557V524Q1096 414 1064 315T969 142 818 24 615-20Q501-20 412 23T260 141 165 315 131 524V557ZM251 524Q251 438 275 358T345 217 458 118 615 81Q703 81 770 118T883 216 953 358 977 524V557Q977 642 953 722T883 863 769 962 613 1000Q525 1000 458 963T345 864 275 722 251 557V524Z" glyph-name="o" horiz-adv-x="1229" unicode="o"/><glyph d="M1068 530Q1068 425 1043 326T965 150 832 27 642-20Q541-20 457 19T316 132V-416H196V1082H308L313 934Q370 1014 453 1058T640 1102Q751 1102 832 1057T965 935 1042 759 1068 551V530ZM948 551Q948 632 930 712T872 855 769 958 613 998Q561 998 516 984T433 943 366 880 316 799V263Q358 179 436 130T615 81Q706 81 769 121T872 224 930 368 948 530V551Z" glyph-name="p" horiz-adv-x="1229" unicode="p"/><glyph d="M158 551Q158 659 184 758T263 934 398 1056 591 1102Q692 1102 773 1060T911 939L917 1082H1029V-416H909V130Q851 57 769 19T589-20Q479-20 398 26T264 149 185 325 158 530V551ZM279 530Q279 449 297 369T354 225 457 121 611 81Q710 81 787 130T909 261V807Q888 849 858 884T791 945 708 985 613 1000Q521 1000 458 960T355 857 297 713 279 551V530Z" glyph-name="q" horiz-adv-x="1229" unicode="q"/><glyph d="M909 1102Q954 1102 999 1097T1074 1081L1059 966Q1017 975 975 980T889 985Q737 985 631 913T482 692L483 0H359V1082H474L482 894V872Q548 979 657 1040T909 1102Z" glyph-name="r" horiz-adv-x="1229" unicode="r"/><glyph d="M948 275Q948 325 923 362T855 425 754 470 633 501Q555 517 482 539T352 597 261 682 227 807Q227 877 262 932T354 1025 484 1082 634 1102Q722 1102 798 1081T932 1018 1024 916 1061 779H941Q939 831 913 872T844 942 747 985 634 1000Q580 1000 529 989T437 954 372 895 347 811Q346 760 370 726T437 668 535 629 656 600Q738 583 812 559T944 498 1034 408 1067 281Q1067 205 1031 149T935 55 799-1 641-20Q550-20 470 2T328 65 229 167 189 303H309Q315 239 347 196T427 128 531 92 641 81Q696 81 750 92T848 127 919 187 948 275Z" glyph-name="s" horiz-adv-x="1229" unicode="s"/><glyph d="M592 1359V1082H993V984H592V303Q593 240 611 199T661 132 735 95 828 84Q878 84 930 91T1020 105L1038 14Q995-3 933-11T807-20Q735-20 674-3T568 53 497 153 470 304V984H169V1082H470V1359H592Z" glyph-name="t" horiz-adv-x="1229" unicode="t"/><glyph d="M919 169Q865 80 777 30T567-20Q477-20 409 9T294 94 223 231 198 416V1082H317V414Q319 251 383 167T581 83Q716 83 800 145T917 313L916 1082H1037V0H925L919 169Z" glyph-name="u" horiz-adv-x="1229" unicode="u"/><glyph d="M608 162 613 141 619 162 991 1082H1116L661 0H563L107 1082H232L608 162Z" glyph-name="v" horiz-adv-x="1229" unicode="v"/><glyph d="M324 351 356 159 396 351 579 1082H663L846 351 886 154 921 351 1069 1082H1180L940 0H843L652 740 620 913 588 740 399 0H302L62 1082H173L324 351Z" glyph-name="w" horiz-adv-x="1229" unicode="w"/><glyph d="M624 640 960 1082H1105L693 551 1121 0H979L626 461 273 0H130L558 551 146 1082H289L624 640Z" glyph-name="x" horiz-adv-x="1229" unicode="x"/><glyph d="M600 220 622 161 1013 1082H1149L590-173Q568-222 538-269T467-353 373-414 250-437Q226-437 197-433T148-423L162-323Q179-325 204-327T247-330Q293-330 331-312T398-266 450-202 488-132L562 28 76 1082H211L600 220Z" glyph-name="y" horiz-adv-x="1229" unicode="y"/><glyph d="M305 101H1098V0H148L149 88 885 979H171V1082H1046L1045 993 305 101Z" glyph-name="z" horiz-adv-x="1229" unicode="z"/><glyph d="M974-404Q883-389 815-347T702-243 633-104 609 58V266Q608 406 538 473T331 543V570H330V597 619L331 647Q467 650 537 716T609 922V1132Q610 1216 632 1293T698 1433 811 1539 973 1597L992 1518Q918 1504 868 1469T788 1382 744 1266 729 1132V922Q727 798 669 714T495 594Q610 558 668 474T729 266V58Q730-13 746-76T795-189 877-275 994-324L974-404Z" glyph-name="braceleft" horiz-adv-x="1229" unicode="{"/><glyph d="M665-332H564V1456H665V-332Z" glyph-name="bar" horiz-adv-x="1229" unicode="|"/><glyph d="M330-324Q397-310 446-275T529-190 578-76 595 58V266Q596 389 655 473T829 594Q714 630 655 714T595 922V1132Q594 1202 581 1266T537 1381 456 1468 333 1518L351 1597Q444 1582 512 1539T626 1434 693 1294 715 1132V922Q716 783 786 717T993 647V619H994L993 594 994 570H993V543Q857 540 787 473T715 266V58Q715-26 692-103T624-242 510-346 350-404L330-324Z" glyph-name="braceright" horiz-adv-x="1229" unicode="}"/><glyph d="M1168 746Q1167 683 1148 625T1092 521 1003 450 883 423Q837 423 797 433T719 463 646 509 574 568Q547 591 520 611T465 647 406 671 343 680Q297 680 262 662T204 614 168 543 154 459L59 467Q60 531 79 589T135 691 223 761 343 787Q389 787 430 776T509 746 582 700 654 643Q682 619 708 598T763 562 820 538 883 529Q929 529 964 548T1023 598 1059 670 1073 755L1168 746Z" glyph-name="asciitilde" horiz-adv-x="1229" unicode="~"/><glyph d="M558 654H678V-365H558V654ZM699 1020Q699 986 676 962T613 938Q574 938 551 961T527 1020Q527 1055 550 1079T613 1103Q651 1103 675 1079T699 1020Z" glyph-name="exclamdown" horiz-adv-x="1229" unicode="&#xa1;"/><glyph d="M637 81Q697 81 751 98T848 149 916 228 947 334H1062Q1058 264 1028 204T949 98 835 23 697-16V-245H576V-16Q473-5 396 43T268 165 192 329 166 520V562Q166 659 191 751T268 916 396 1037 576 1098V1318H697V1098Q775 1089 840 1057T954 975 1030 859 1062 717H947Q944 778 919 830T853 920 757 979 636 1000Q542 1000 476 962T367 862 306 722 286 562V520Q286 438 305 359T367 219 475 119 637 81Z" glyph-name="cent" horiz-adv-x="1229" unicode="&#xa2;"/><glyph d="M441 647 450 367Q451 295 437 225T385 101H1133V0H138V101H235Q266 113 285 143T315 213 328 293 330 367L321 647H134V748H318L309 1039Q309 1132 337 1211T417 1350 545 1442 714 1476Q805 1476 877 1448T1000 1368 1077 1245 1105 1089H985Q984 1156 963 1209T906 1299 818 1355 705 1374Q639 1374 588 1348T501 1277 447 1170 429 1039L438 748H782V647H441Z" glyph-name="sterling" horiz-adv-x="1229" unicode="&#xa3;"/><glyph d="M956 116Q893 53 812 17T634-20Q537-20 456 16T312 114L185-26 101 60 236 208Q185 285 159 376T132 563Q132 662 161 756T244 928L101 1087 185 1174 324 1021Q386 1078 463 1111T634 1144Q727 1144 805 1111T945 1019L1086 1175 1171 1087 1025 925Q1078 847 1106 754T1134 563Q1134 469 1108 379T1033 212L1171 60 1086-27 956 116ZM246 563Q246 478 273 394T350 242 473 133 634 91Q723 91 794 133T916 242 994 393 1021 563Q1021 647 994 731T917 882 795 990 634 1032Q545 1032 474 991T352 882 274 732 246 563Z" glyph-name="currency" horiz-adv-x="1229" unicode="&#xa4;"/><glyph d="M614 733 1037 1456H1176L722 705H1092V618H672V412H1092V326H672V0H552V326H138V412H552V618H138V705H506L53 1456H191L614 733Z" glyph-name="yen" horiz-adv-x="1229" unicode="&#xa5;"/><glyph d="M543-270V501H663V-270H543ZM663 698H543V1456H663V698Z" glyph-name="brokenbar" horiz-adv-x="1229" unicode="&#xa6;"/><glyph d="M1121 431Q1121 376 1103 332T1054 254 981 197 888 158Q930 135 965 107T1025 42 1063-38 1077-139Q1077-229 1039-296T937-407 788-473 608-495Q509-495 419-470T259-392 148-258 105-64L225-62Q227-148 259-210T343-313 464-373 608-393Q677-393 740-377T851-330 928-251 957-141Q957-77 930-33T853 43 735 99 587 146Q496 170 411 200T258 277 151 389 111 551Q111 605 127 649T173 727 244 787 334 827Q294 850 261 878T205 942 169 1022 156 1120Q156 1208 194 1274T296 1386 446 1453 626 1476Q733 1476 820 1447T968 1363 1063 1228 1099 1045H979Q977 1117 952 1177T880 1281 770 1349 626 1374Q554 1374 491 1359T380 1312 304 1233 276 1122Q276 1055 303 1010T379 931 496 875 648 828Q739 803 824 774T976 700 1081 591 1121 431ZM598 729Q562 739 528 749T461 770Q413 764 371 748T298 705 249 640 231 553Q230 482 261 435T347 355 475 298 632 251Q663 242 693 233T753 214Q802 220 846 236T925 278 980 341 1002 428Q1003 495 970 542T881 622 752 681 598 729Z" glyph-name="section" horiz-adv-x="1229" unicode="&#xa7;"/><glyph d="M310 1396Q310 1429 332 1453T392 1477Q430 1477 452 1453T475 1396Q475 1364 453 1341T392 1317Q354 1317 332 1340T310 1396ZM748 1395Q748 1428 770 1452T830 1476Q868 1476 890 1452T913 1395Q913 1363 891 1340T830 1316Q792 1316 770 1339T748 1395Z" glyph-name="dieresis" horiz-adv-x="1229" unicode="&#xa8;"/><glyph d="M853 449Q854 402 840 360T797 285 722 234 615 215Q548 215 501 242T422 312 377 408 362 514V581Q362 633 376 685T422 780 500 848 615 875Q676 875 721 857T796 808 840 735 854 646H775Q773 677 765 705T739 754 690 787 615 800Q566 800 534 780T481 727 452 657 443 582V514Q443 478 452 439T481 367 533 313 615 290Q660 290 690 303T738 338 764 389 774 449H853ZM158 546Q158 455 189 367T279 208 425 95 623 51Q734 51 820 94T965 208 1056 367 1087 546Q1087 635 1056 722T966 877 820 988 623 1031Q512 1031 426 989T280 878 189 722 158 546ZM87 546Q87 651 123 751T229 929 397 1056 623 1104Q749 1104 848 1056T1016 930 1121 751 1158 546Q1158 439 1122 338T1017 156 849 28 623-21Q539-21 467 1T335 63 229 156 152 273 104 405 87 546Z" glyph-name="copyright" horiz-adv-x="1229" unicode="&#xa9;"/><glyph d="M816 705Q808 731 802 758T794 815Q758 762 697 727T555 691Q502 691 456 705T375 746 322 814 302 908Q302 970 328 1014T400 1085 506 1126 633 1140H792V1201Q790 1282 749 1330T625 1380Q586 1380 551 1372T489 1347 446 1302 427 1237L319 1243Q322 1298 346 1341T412 1415 508 1460 625 1476Q689 1476 739 1457T826 1402 881 1315 901 1200V886Q901 793 928 705H816ZM575 786Q606 786 640 796T704 823 758 863 792 913V1058H634Q592 1058 552 1050T481 1025 430 980 410 912Q410 879 423 855T458 816 510 793 575 786Z" glyph-name="ordfeminine" horiz-adv-x="1229" unicode="&#xaa;"/><glyph d="M368 520 644 132H539L244 511V530L539 909H644L368 520ZM703 520 979 132H874L579 511V530L874 909H979L703 520Z" glyph-name="guillemotleft" horiz-adv-x="1229" unicode="&#xab;"/><glyph d="M1009 386H890V670H198V776H1009V386Z" glyph-name="logicalnot" horiz-adv-x="1229" unicode="&#xac;"/><glyph d="M970 601H229V702H970V601Z" glyph-name="uni00AD" horiz-adv-x="1230" unicode="&#xad;"/><glyph d="M84 539Q84 646 120 746T226 925 394 1050 620 1098Q704 1098 776 1077T908 1017 1013 926 1091 811 1138 679 1155 539Q1155 432 1119 332T1014 153 846 27 620-21Q494-21 395 26T226 152 121 331 84 539ZM154 539Q154 448 185 361T276 204 422 93 620 51Q731 51 817 93T962 205 1053 361 1084 539Q1084 630 1053 717T963 873 817 984 620 1026Q509 1026 423 984T276 874 185 718 154 539ZM494 491V234H414V856H621Q726 854 785 807T845 671Q844 613 809 574T708 516L860 234H776L642 491H494ZM494 565H633Q696 567 730 596T764 670Q765 725 731 752T621 781H494V565Z" glyph-name="registered" horiz-adv-x="1229" unicode="&#xae;"/><glyph d="M949 1359H279V1456H949V1359Z" glyph-name="overscore" horiz-adv-x="1229" unicode="&#xaf;"/><glyph d="M370 1226Q370 1277 389 1322T442 1401 521 1456 616 1476Q665 1476 709 1456T786 1402 838 1322 857 1226Q857 1175 838 1131T787 1053 710 1000 616 980Q566 980 521 999T443 1052 390 1130 370 1226ZM460 1226Q460 1193 472 1165T505 1116 554 1083 616 1071Q648 1071 675 1083T723 1116 755 1165 767 1226Q767 1259 756 1288T724 1338 677 1372 616 1385Q583 1385 555 1373T505 1339 472 1288 460 1226Z" glyph-name="degree" horiz-adv-x="1229" unicode="&#xb0;"/><glyph d="M681 829H1072V728H681V289H570V728H156V829H570V1267H681V829ZM1038-1H203V101H1038V-1Z" glyph-name="plusminus" horiz-adv-x="1229" unicode="&#xb1;"/><glyph d="M922 667H351V742L640 1025Q668 1052 693 1078T736 1131 766 1185 777 1239Q777 1272 765 1298T732 1342 681 1369 618 1379Q535 1379 488 1336T437 1217H331Q332 1272 354 1318T413 1397 502 1448 616 1467Q673 1467 722 1452T807 1408 863 1337 883 1241Q883 1199 868 1162T826 1089 767 1020 698 952L485 754H922V667Z" glyph-name="twosuperior" horiz-adv-x="1229" unicode="&#xb2;"/><glyph d="M533 1108H611Q647 1108 680 1116T738 1140 779 1182 795 1242Q795 1275 783 1300T748 1343 695 1369 628 1378Q593 1378 563 1370T510 1345 472 1303 456 1246H351Q353 1298 375 1339T435 1408 522 1451 626 1466Q683 1466 733 1452T820 1410 879 1341 901 1244Q900 1179 858 1135T751 1069Q826 1050 871 1005T917 881Q917 825 894 783T831 713 739 670 629 655Q574 655 523 669T431 711 365 783 337 885H443Q445 850 460 824T501 779 560 752 632 742Q669 742 701 751T758 778 797 822 811 884Q811 925 794 952T749 996 685 1019 611 1026H533V1108Z" glyph-name="threesuperior" horiz-adv-x="1229" unicode="&#xb3;"/><glyph d="M634 1498H779L549 1232H450L634 1498Z" glyph-name="acute" horiz-adv-x="1229" unicode="&#xb4;"/><glyph d="M324 1082V449Q325 362 341 294T389 178 470 106 587 81Q659 81 712 99T804 150 866 228 903 329V1082H1023V0H914L907 162Q861 78 785 30T596-20Q506-20 438 14T324 110V-416H206V1082H324Z" glyph-name="mu" horiz-adv-x="1229" unicode="&#xb5;"/><glyph d="M830 0V520H724Q613 520 523 554T368 649 268 797 233 988Q233 1092 268 1178T367 1325 522 1421 724 1456H950V0H830Z" glyph-name="paragraph" horiz-adv-x="1229" unicode="&#xb6;"/><glyph d="M534 717Q534 751 557 775T619 800Q658 800 681 776T705 717Q705 683 682 659T619 635Q580 635 557 659T534 717Z" glyph-name="middot" horiz-adv-x="1229" unicode="&#xb7;"/><glyph d="M624 0 612-64Q645-69 674-81T727-113 763-163 777-235Q777-287 753-324T689-385 595-422 483-435L476-357Q509-357 545-351T610-332 658-295 678-237Q678-205 664-185T626-154 569-137 503-127L531 0H624Z" glyph-name="cedilla" horiz-adv-x="1229" unicode="&#xb8;"/><glyph d="M743 665H638V1328L406 1258V1348L730 1455H743V665Z" glyph-name="onesuperior" horiz-adv-x="1229" unicode="&#xb9;"/><glyph d="M291 1141Q291 1211 313 1272T377 1378 479 1450 614 1476Q690 1476 749 1450T850 1379 914 1272 937 1141V1024Q937 954 915 893T851 787 751 716 616 690Q540 690 480 716T378 787 314 893 291 1024V1141ZM399 1024Q400 974 413 931T454 855 521 804 616 785Q668 785 708 804T775 855 815 930 830 1024V1141Q829 1190 815 1233T774 1309 707 1361 614 1380Q561 1380 521 1361T454 1310 414 1234 399 1141V1024Z" glyph-name="ordmasculine" horiz-adv-x="1229" unicode="&#xba;"/><glyph d="M350 944 644 560V541L350 162H244L520 550 244 944H350ZM695 944 989 560V541L695 162H589L865 550 589 944H695Z" glyph-name="guillemotright" horiz-adv-x="1229" unicode="&#xbb;"/><glyph d="M358 751H264V1348L55 1285V1366L347 1462H358V751ZM622 179 541 227 1064 1275 1147 1227 622 179ZM1040 248H1154V168H1040V0H945V168H586L582 228 940 710H1040V248ZM685 248H945V593L917 548 685 248Z" glyph-name="onequarter" horiz-adv-x="1229" unicode="&#xbc;"/><glyph d="M580 179 499 227 1022 1275 1105 1227 580 179ZM355 747H261V1344L52 1281V1362L344 1458H355V747ZM1164 0H650V68L910 322Q935 347 957 370T996 418 1023 466 1033 515Q1033 545 1023 568T993 607 947 632 890 641Q815 641 773 602T727 495H632Q633 545 652 586T706 657 786 703 888 720Q940 720 984 707T1060 667 1111 603 1129 517Q1129 479 1115 445T1078 379 1024 317 962 257L770 78H1164V0Z" glyph-name="onehalf" horiz-adv-x="1229" unicode="&#xbd;"/><glyph d="M438 174 357 222 880 1270 963 1222 438 174ZM1068 249H1182V169H1068V1H973V169H614L610 229 968 711H1068V249ZM713 249H973V594L945 549 713 249ZM226 1142H296Q329 1142 358 1149T411 1171 448 1208 462 1262Q462 1292 451 1315T419 1353 372 1377 312 1385Q280 1385 253 1378T205 1355 172 1318 157 1266H62Q64 1313 84 1350T138 1412 216 1450 310 1464Q361 1464 406 1452T485 1414 538 1351 557 1264Q556 1206 519 1167T422 1107Q490 1090 531 1049T572 938Q572 887 551 850T494 786 411 747 312 734Q263 734 217 746T134 785 74 849 50 941H145Q147 910 161 886T198 846 251 821 315 812Q348 812 377 820T429 845 463 885 476 940Q476 977 461 1002T421 1041 363 1061 296 1068H226V1142Z" glyph-name="threequarters" horiz-adv-x="1229" unicode="&#xbe;"/><glyph d="M695 684Q694 624 689 582T669 504 628 437 559 365Q520 325 483 284T416 196 370 99 352-12Q352-74 369-123T421-207 503-261 614-280Q670-280 717-263T799-212 854-132 877-26H996Q994-107 966-173T887-287 768-360 614-386Q525-386 455-359T335-284 259-167 232-14Q232 58 253 122T311 242 393 349 487 443Q517 471 535 497T562 552 573 612 576 684H695ZM544 1018Q544 1052 567 1076T630 1101Q669 1101 692 1077T715 1018Q715 984 692 960T630 936Q591 936 568 960T544 1018Z" glyph-name="questiondown" horiz-adv-x="1229" unicode="&#xbf;"/><glyph d="M905 406H351L222 0H101L575 1456H683L1153 0H1033L905 406ZM385 513H871L629 1279 385 513ZM691 1565H587L369 1831H513L691 1565Z" glyph-name="Agrave" horiz-adv-x="1229" unicode="&#xc0;"/><glyph d="M905 406H351L222 0H101L575 1456H683L1153 0H1033L905 406ZM385 513H871L629 1279 385 513ZM752 1829H897L667 1563H568L752 1829Z" glyph-name="Aacute" horiz-adv-x="1229" unicode="&#xc1;"/><glyph d="M905 406H351L222 0H101L575 1456H683L1153 0H1033L905 406ZM385 513H871L629 1279 385 513ZM909 1608V1591H798L629 1765 462 1591H354V1611L592 1850H668L909 1608Z" glyph-name="Acircumflex" horiz-adv-x="1229" unicode="&#xc2;"/><glyph d="M905 406H351L222 0H101L575 1456H683L1153 0H1033L905 406ZM385 513H871L629 1279 385 513ZM955 1824Q953 1783 940 1746T902 1681 843 1637 766 1620Q719 1620 686 1637T622 1675 561 1713 489 1730Q438 1729 410 1695T379 1611L300 1624Q301 1664 314 1701T352 1766 411 1810 489 1827Q531 1827 564 1810T629 1772 693 1734 766 1717Q791 1717 811 1727T845 1753 866 1792 876 1839L955 1824Z" glyph-name="Atilde" horiz-adv-x="1229" unicode="&#xc3;"/><glyph d="M905 406H351L222 0H101L575 1456H683L1153 0H1033L905 406ZM385 513H871L629 1279 385 513ZM322 1729Q322 1762 344 1786T404 1810Q442 1810 464 1786T487 1729Q487 1697 465 1674T404 1650Q366 1650 344 1673T322 1729ZM760 1728Q760 1761 782 1785T842 1809Q880 1809 902 1785T925 1728Q925 1696 903 1673T842 1649Q804 1649 782 1672T760 1728Z" glyph-name="Adieresis" horiz-adv-x="1229" unicode="&#xc4;"/><glyph d="M905 406H351L222 0H101L575 1456H683L1153 0H1033L905 406ZM385 513H871L629 1279 385 513ZM444 1717Q444 1755 458 1789T497 1848 555 1888 628 1903Q666 1903 699 1889T757 1849 796 1789 811 1717Q811 1678 797 1645T758 1588 700 1549 628 1535Q589 1535 556 1549T498 1587 459 1645 444 1717ZM520 1717Q520 1694 528 1674T551 1639 585 1615 628 1606Q651 1606 670 1615T704 1639 726 1674 734 1717Q734 1740 726 1761T704 1797 671 1822 628 1831Q605 1831 585 1822T551 1798 528 1761 520 1717Z" glyph-name="Aring" horiz-adv-x="1229" unicode="&#xc5;"/><glyph d="M1171 0H668L662 389H320L180 0H55L607 1456H1141V1354H759L767 809H1099V707H769L777 101H1171V0ZM361 502H661L650 1300 361 502Z" glyph-name="AE" horiz-adv-x="1229" unicode="&#xc6;"/><glyph d="M1099 442Q1087 344 1050 260T952 113 808 15 620-20Q533-20 463 6T338 79 243 187 177 320 139 469 125 622V833Q126 909 138 986T177 1134 243 1268 337 1376 462 1449 620 1476Q726 1476 809 1441T954 1344 1051 1196 1099 1011H980Q968 1086 942 1152T871 1267 765 1345 620 1374Q549 1374 494 1350T398 1286 327 1193 280 1079 254 957 245 835V622Q245 563 253 500T280 377 327 264 397 170 494 105 620 81Q704 81 766 108T872 185 942 300 980 442H1099ZM661 252 649 188Q682 183 711 171T764 139 800 89 814 17Q814-35 790-72T726-133 632-170 520-183L513-105Q546-105 582-99T647-80 695-43 715 15Q715 47 701 67T663 98 606 115 540 125L568 252H661Z" glyph-name="Ccedilla" horiz-adv-x="1229" unicode="&#xc7;"/><glyph d="M962 698H320V104H1060V0H201V1456H1056V1351H320V802H962V698ZM635 1565H531L313 1831H457L635 1565Z" glyph-name="Egrave" horiz-adv-x="1229" unicode="&#xc8;"/><glyph d="M962 698H320V104H1060V0H201V1456H1056V1351H320V802H962V698ZM696 1829H841L611 1563H512L696 1829Z" glyph-name="Eacute" horiz-adv-x="1229" unicode="&#xc9;"/><glyph d="M962 698H320V104H1060V0H201V1456H1056V1351H320V802H962V698ZM853 1608V1591H742L573 1765 406 1591H298V1611L536 1850H612L853 1608Z" glyph-name="Ecircumflex" horiz-adv-x="1229" unicode="&#xca;"/><glyph d="M962 698H320V104H1060V0H201V1456H1056V1351H320V802H962V698ZM267 1729Q267 1762 289 1786T349 1810Q387 1810 409 1786T432 1729Q432 1697 410 1674T349 1650Q311 1650 289 1673T267 1729ZM705 1728Q705 1761 727 1785T787 1809Q825 1809 847 1785T870 1728Q870 1696 848 1673T787 1649Q749 1649 727 1672T705 1728Z" glyph-name="Edieresis" horiz-adv-x="1229" unicode="&#xcb;"/><glyph d="M193 1456H1036V1348H671V106H1036V0H193V106H547V1348H193V1456ZM662 1565H558L340 1831H484L662 1565Z" glyph-name="Igrave" horiz-adv-x="1229" unicode="&#xcc;"/><glyph d="M193 1456H1036V1348H671V106H1036V0H193V106H547V1348H193V1456ZM723 1829H868L638 1563H539L723 1829Z" glyph-name="Iacute" horiz-adv-x="1229" unicode="&#xcd;"/><glyph d="M193 1456H1036V1348H671V106H1036V0H193V106H547V1348H193V1456ZM880 1608V1591H769L600 1765 433 1591H325V1611L563 1850H639L880 1608Z" glyph-name="Icircumflex" horiz-adv-x="1229" unicode="&#xce;"/><glyph d="M193 1456H1036V1348H671V106H1036V0H193V106H547V1348H193V1456ZM294 1729Q294 1762 316 1786T376 1810Q414 1810 436 1786T459 1729Q459 1697 437 1674T376 1650Q338 1650 316 1673T294 1729ZM732 1728Q732 1761 754 1785T814 1809Q852 1809 874 1785T897 1728Q897 1696 875 1673T814 1649Q776 1649 754 1672T732 1728Z" glyph-name="Idieresis" horiz-adv-x="1229" unicode="&#xcf;"/><glyph d="M207 0V689H-45V791H207V1456H559Q699 1454 809 1401T995 1259 1111 1052 1153 799V656Q1151 522 1111 404T995 196 809 55 559 0H207ZM567 689H327V101H559Q676 103 764 149T912 271 1001 447 1033 656V802Q1032 910 1002 1009T912 1184 765 1306 559 1354H327V791H567V689Z" glyph-name="Eth" horiz-adv-x="1259" unicode="&#xd0;"/><glyph d="M1068 0H949L281 1229 280 0H161V1456H280L948 229 949 1456H1068V0ZM937 1824Q935 1783 922 1746T884 1681 825 1637 748 1620Q701 1620 668 1637T604 1675 543 1713 471 1730Q420 1729 392 1695T361 1611L282 1624Q283 1664 296 1701T334 1766 393 1810 471 1827Q513 1827 546 1810T611 1772 675 1734 748 1717Q773 1717 793 1727T827 1753 848 1792 858 1839L937 1824Z" glyph-name="Ntilde" horiz-adv-x="1229" unicode="&#xd1;"/><glyph d="M1103 631Q1102 557 1090 480T1053 330 988 194 896 83 772 8 615-20Q529-20 459 7T335 82 241 194 176 330 138 480 124 631V823Q125 897 137 974T175 1124 239 1261 333 1373 456 1448 613 1476Q700 1476 770 1449T894 1374 988 1262 1052 1126 1090 976 1103 823V631ZM985 825Q984 883 976 946T950 1069 904 1183 834 1279 738 1344 613 1368Q543 1368 489 1344T393 1278 324 1183 277 1068 251 945 242 825V631Q243 573 251 511T278 388 324 273 394 177 490 112 615 87Q686 87 740 111T836 177 905 272 951 387 976 510 985 631V825ZM689 1586H585L367 1852H511L689 1586Z" glyph-name="Ograve" horiz-adv-x="1229" unicode="&#xd2;"/><glyph d="M1103 631Q1102 557 1090 480T1053 330 988 194 896 83 772 8 615-20Q529-20 459 7T335 82 241 194 176 330 138 480 124 631V823Q125 897 137 974T175 1124 239 1261 333 1373 456 1448 613 1476Q700 1476 770 1449T894 1374 988 1262 1052 1126 1090 976 1103 823V631ZM985 825Q984 883 976 946T950 1069 904 1183 834 1279 738 1344 613 1368Q543 1368 489 1344T393 1278 324 1183 277 1068 251 945 242 825V631Q243 573 251 511T278 388 324 273 394 177 490 112 615 87Q686 87 740 111T836 177 905 272 951 387 976 510 985 631V825ZM750 1850H895L665 1584H566L750 1850Z" glyph-name="Oacute" horiz-adv-x="1229" unicode="&#xd3;"/><glyph d="M1103 631Q1102 557 1090 480T1053 330 988 194 896 83 772 8 615-20Q529-20 459 7T335 82 241 194 176 330 138 480 124 631V823Q125 897 137 974T175 1124 239 1261 333 1373 456 1448 613 1476Q700 1476 770 1449T894 1374 988 1262 1052 1126 1090 976 1103 823V631ZM985 825Q984 883 976 946T950 1069 904 1183 834 1279 738 1344 613 1368Q543 1368 489 1344T393 1278 324 1183 277 1068 251 945 242 825V631Q243 573 251 511T278 388 324 273 394 177 490 112 615 87Q686 87 740 111T836 177 905 272 951 387 976 510 985 631V825ZM907 1629V1612H796L627 1786 460 1612H352V1632L590 1871H666L907 1629Z" glyph-name="Ocircumflex" horiz-adv-x="1229" unicode="&#xd4;"/><glyph d="M1103 631Q1102 557 1090 480T1053 330 988 194 896 83 772 8 615-20Q529-20 459 7T335 82 241 194 176 330 138 480 124 631V823Q125 897 137 974T175 1124 239 1261 333 1373 456 1448 613 1476Q700 1476 770 1449T894 1374 988 1262 1052 1126 1090 976 1103 823V631ZM985 825Q984 883 976 946T950 1069 904 1183 834 1279 738 1344 613 1368Q543 1368 489 1344T393 1278 324 1183 277 1068 251 945 242 825V631Q243 573 251 511T278 388 324 273 394 177 490 112 615 87Q686 87 740 111T836 177 905 272 951 387 976 510 985 631V825ZM953 1845Q951 1804 938 1767T900 1702 841 1658 764 1641Q717 1641 684 1658T620 1696 559 1734 487 1751Q436 1750 408 1716T377 1632L298 1645Q299 1685 312 1722T350 1787 409 1831 487 1848Q529 1848 562 1831T627 1793 691 1755 764 1738Q789 1738 809 1748T843 1774 864 1813 874 1860L953 1845Z" glyph-name="Otilde" horiz-adv-x="1229" unicode="&#xd5;"/><glyph d="M1103 631Q1102 557 1090 480T1053 330 988 194 896 83 772 8 615-20Q529-20 459 7T335 82 241 194 176 330 138 480 124 631V823Q125 897 137 974T175 1124 239 1261 333 1373 456 1448 613 1476Q700 1476 770 1449T894 1374 988 1262 1052 1126 1090 976 1103 823V631ZM985 825Q984 883 976 946T950 1069 904 1183 834 1279 738 1344 613 1368Q543 1368 489 1344T393 1278 324 1183 277 1068 251 945 242 825V631Q243 573 251 511T278 388 324 273 394 177 490 112 615 87Q686 87 740 111T836 177 905 272 951 387 976 510 985 631V825ZM320 1750Q320 1783 342 1807T402 1831Q440 1831 462 1807T485 1750Q485 1718 463 1695T402 1671Q364 1671 342 1694T320 1750ZM758 1749Q758 1782 780 1806T840 1830Q878 1830 900 1806T923 1749Q923 1717 901 1694T840 1670Q802 1670 780 1693T758 1749Z" glyph-name="Odieresis" horiz-adv-x="1229" unicode="&#xd6;"/><glyph d="M196 179 554 544 211 894 290 974 632 624 975 974 1054 894 711 544 1070 179 991 100 632 464 275 100 196 179Z" glyph-name="multiply" horiz-adv-x="1229" unicode="&#xd7;"/><glyph d="M1093 631Q1092 557 1080 480T1043 330 978 194 886 83 762 8 605-20Q514-20 443 9T316 90L213-84H110L254 160Q218 208 192 265T149 383 123 507 114 631V823Q115 897 127 974T165 1124 229 1261 323 1373 446 1448 603 1476Q713 1476 795 1433T936 1319L1046 1505H1149L991 1238Q1043 1145 1067 1037T1093 823V631ZM232 631Q232 587 237 540T252 446 278 354 317 268L875 1215Q831 1283 765 1325T603 1368Q533 1368 479 1344T383 1278 314 1183 267 1068 241 945 232 825V631ZM975 825Q974 896 962 972T922 1121L373 188Q415 142 472 115T605 87Q676 87 730 111T826 177 895 272 941 387 966 510 975 631V825Z" glyph-name="Oslash" horiz-adv-x="1229" unicode="&#xd8;"/><glyph d="M1071 1456 1072 469Q1070 370 1038 281T946 126 803 20 615-20Q510-20 426 19T283 125 191 281 157 469L159 1456H272L275 469Q276 394 299 325T365 202 471 116 615 84Q696 84 758 116T863 201 928 324 953 469L955 1456H1071ZM698 1559H594L376 1825H520L698 1559Z" glyph-name="Ugrave" horiz-adv-x="1229" unicode="&#xd9;"/><glyph d="M1071 1456 1072 469Q1070 370 1038 281T946 126 803 20 615-20Q510-20 426 19T283 125 191 281 157 469L159 1456H272L275 469Q276 394 299 325T365 202 471 116 615 84Q696 84 758 116T863 201 928 324 953 469L955 1456H1071ZM759 1823H904L674 1557H575L759 1823Z" glyph-name="Uacute" horiz-adv-x="1229" unicode="&#xda;"/><glyph d="M1071 1456 1072 469Q1070 370 1038 281T946 126 803 20 615-20Q510-20 426 19T283 125 191 281 157 469L159 1456H272L275 469Q276 394 299 325T365 202 471 116 615 84Q696 84 758 116T863 201 928 324 953 469L955 1456H1071ZM916 1602V1585H805L636 1759 469 1585H361V1605L599 1844H675L916 1602Z" glyph-name="Ucircumflex" horiz-adv-x="1229" unicode="&#xdb;"/><glyph d="M1071 1456 1072 469Q1070 370 1038 281T946 126 803 20 615-20Q510-20 426 19T283 125 191 281 157 469L159 1456H272L275 469Q276 394 299 325T365 202 471 116 615 84Q696 84 758 116T863 201 928 324 953 469L955 1456H1071ZM329 1723Q329 1756 351 1780T411 1804Q449 1804 471 1780T494 1723Q494 1691 472 1668T411 1644Q373 1644 351 1667T329 1723ZM767 1722Q767 1755 789 1779T849 1803Q887 1803 909 1779T932 1722Q932 1690 910 1667T849 1643Q811 1643 789 1666T767 1722Z" glyph-name="Udieresis" horiz-adv-x="1229" unicode="&#xdc;"/><glyph d="M600 662 989 1456H1125L658 548 656 0H544L542 548 75 1456H214L600 662ZM724 1822H869L639 1556H540L724 1822Z" glyph-name="Yacute" horiz-adv-x="1229" unicode="&#xdd;"/><glyph d="M310 1456V1152H634Q738 1152 824 1123T972 1040 1068 910 1103 738Q1103 643 1069 567T972 437 824 354 634 324H310V0H191V1456H310ZM310 1051V425H634Q712 426 776 449T886 513 958 610 984 736Q984 805 959 863T888 962 778 1027 634 1051H310Z" glyph-name="Thorn" horiz-adv-x="1229" unicode="&#xde;"/><glyph d="M312 0H193V1116Q193 1209 217 1287T286 1423 399 1513 555 1546Q624 1546 685 1525T791 1465 864 1369 891 1239Q891 1171 873 1118T832 1019 790 926 772 826Q772 777 795 738T853 662 928 591 1002 513 1059 420 1082 301Q1082 224 1056 165T983 64 874 1 741-21Q702-21 660-16T577-1 501 24 440 59L473 160Q496 144 526 130T589 104 658 87 728 80Q780 80 823 96T898 141 946 210 963 301Q963 355 940 397T883 476 808 548 734 625 676 715 652 828Q652 886 671 935T713 1031 755 1126 774 1232Q774 1279 757 1318T710 1385 643 1428 565 1444Q500 1445 453 1421T375 1352 329 1248 312 1116V0Z" glyph-name="germandbls" horiz-adv-x="1229" unicode="&#xdf;"/><glyph d="M937 0Q926 33 920 73T912 156Q881 118 840 86T751 31 646-6 529-20Q453-20 388 2T274 64 198 160 170 287Q170 380 211 445T322 550 484 610 677 629H911V752Q910 813 887 859T825 937 731 985 612 1001Q554 1001 502 986T409 943 343 875 316 783L196 784Q199 853 232 911T323 1011 455 1078 617 1102Q703 1102 778 1080T909 1014 997 904 1031 750V226Q1031 172 1040 117T1064 12L1065 0H937ZM542 86Q605 85 662 101T768 145 853 213 911 300V537H693Q614 537 541 525T412 486 323 412 289 297Q289 248 309 209T363 143 443 101 542 86ZM952 1244H848L630 1510H774L952 1244Z" glyph-name="agrave" horiz-adv-x="1229" unicode="&#xe0;"/><glyph d="M937 0Q926 33 920 73T912 156Q881 118 840 86T751 31 646-6 529-20Q453-20 388 2T274 64 198 160 170 287Q170 380 211 445T322 550 484 610 677 629H911V752Q910 813 887 859T825 937 731 985 612 1001Q554 1001 502 986T409 943 343 875 316 783L196 784Q199 853 232 911T323 1011 455 1078 617 1102Q703 1102 778 1080T909 1014 997 904 1031 750V226Q1031 172 1040 117T1064 12L1065 0H937ZM542 86Q605 85 662 101T768 145 853 213 911 300V537H693Q614 537 541 525T412 486 323 412 289 297Q289 248 309 209T363 143 443 101 542 86ZM757 1508H902L672 1242H573L757 1508Z" glyph-name="aacute" horiz-adv-x="1229" unicode="&#xe1;"/><glyph d="M937 0Q926 33 920 73T912 156Q881 118 840 86T751 31 646-6 529-20Q453-20 388 2T274 64 198 160 170 287Q170 380 211 445T322 550 484 610 677 629H911V752Q910 813 887 859T825 937 731 985 612 1001Q554 1001 502 986T409 943 343 875 316 783L196 784Q199 853 232 911T323 1011 455 1078 617 1102Q703 1102 778 1080T909 1014 997 904 1031 750V226Q1031 172 1040 117T1064 12L1065 0H937ZM542 86Q605 85 662 101T768 145 853 213 911 300V537H693Q614 537 541 525T412 486 323 412 289 297Q289 248 309 209T363 143 443 101 542 86ZM914 1287V1270H803L634 1444 467 1270H359V1290L597 1529H673L914 1287Z" glyph-name="acircumflex" horiz-adv-x="1229" unicode="&#xe2;"/><glyph d="M937 0Q926 33 920 73T912 156Q881 118 840 86T751 31 646-6 529-20Q453-20 388 2T274 64 198 160 170 287Q170 380 211 445T322 550 484 610 677 629H911V752Q910 813 887 859T825 937 731 985 612 1001Q554 1001 502 986T409 943 343 875 316 783L196 784Q199 853 232 911T323 1011 455 1078 617 1102Q703 1102 778 1080T909 1014 997 904 1031 750V226Q1031 172 1040 117T1064 12L1065 0H937ZM542 86Q605 85 662 101T768 145 853 213 911 300V537H693Q614 537 541 525T412 486 323 412 289 297Q289 248 309 209T363 143 443 101 542 86ZM960 1503Q958 1462 945 1425T907 1360 848 1316 771 1299Q724 1299 691 1316T627 1354 566 1392 494 1409Q443 1408 415 1374T384 1290L305 1303Q306 1343 319 1380T357 1445 416 1489 494 1506Q536 1506 569 1489T634 1451 698 1413 771 1396Q796 1396 816 1406T850 1432 871 1471 881 1518L960 1503Z" glyph-name="atilde" horiz-adv-x="1229" unicode="&#xe3;"/><glyph d="M937 0Q926 33 920 73T912 156Q881 118 840 86T751 31 646-6 529-20Q453-20 388 2T274 64 198 160 170 287Q170 380 211 445T322 550 484 610 677 629H911V752Q910 813 887 859T825 937 731 985 612 1001Q554 1001 502 986T409 943 343 875 316 783L196 784Q199 853 232 911T323 1011 455 1078 617 1102Q703 1102 778 1080T909 1014 997 904 1031 750V226Q1031 172 1040 117T1064 12L1065 0H937ZM542 86Q605 85 662 101T768 145 853 213 911 300V537H693Q614 537 541 525T412 486 323 412 289 297Q289 248 309 209T363 143 443 101 542 86ZM327 1408Q327 1441 349 1465T409 1489Q447 1489 469 1465T492 1408Q492 1376 470 1353T409 1329Q371 1329 349 1352T327 1408ZM765 1407Q765 1440 787 1464T847 1488Q885 1488 907 1464T930 1407Q930 1375 908 1352T847 1328Q809 1328 787 1351T765 1407Z" glyph-name="adieresis" horiz-adv-x="1229" unicode="&#xe4;"/><glyph d="M937 0Q926 33 920 73T912 156Q881 118 840 86T751 31 646-6 529-20Q453-20 388 2T274 64 198 160 170 287Q170 380 211 445T322 550 484 610 677 629H911V752Q910 813 887 859T825 937 731 985 612 1001Q554 1001 502 986T409 943 343 875 316 783L196 784Q199 853 232 911T323 1011 455 1078 617 1102Q703 1102 778 1080T909 1014 997 904 1031 750V226Q1031 172 1040 117T1064 12L1065 0H937ZM542 86Q605 85 662 101T768 145 853 213 911 300V537H693Q614 537 541 525T412 486 323 412 289 297Q289 248 309 209T363 143 443 101 542 86ZM449 1396Q449 1434 463 1468T502 1527 560 1567 633 1582Q671 1582 704 1568T762 1528 801 1468 816 1396Q816 1357 802 1324T763 1267 705 1228 633 1214Q594 1214 561 1228T503 1266 464 1324 449 1396ZM525 1396Q525 1373 533 1353T556 1318 590 1294 633 1285Q656 1285 675 1294T709 1318 731 1353 739 1396Q739 1419 731 1440T709 1476 676 1501 633 1510Q610 1510 590 1501T556 1477 533 1440 525 1396Z" glyph-name="aring" horiz-adv-x="1229" unicode="&#xe5;"/><glyph d="M894-20Q784-19 713 28T601 153Q582 118 555 87T492 32 415-6 323-20Q255-20 204 3T118 68 65 164 47 284Q47 361 70 425T140 535 252 606 406 632H537V802Q537 839 530 874T504 937 452 982 367 1000Q323 1000 288 986T229 947 193 888 181 812L65 816Q64 881 85 933T147 1023 242 1081 366 1102Q467 1102 529 1062T621 957Q660 1021 722 1061T872 1102Q956 1102 1015 1071T1111 987 1166 866 1184 725L1183 538H653V405Q653 346 665 289T706 185 786 110 912 81Q951 81 983 90T1042 113 1090 145 1129 181L1166 94Q1148 72 1123 52T1064 15 988-10 894-20ZM341 80Q371 80 400 90T456 117 503 156 539 202L538 536H408Q350 535 305 515T228 459 181 378 165 280Q165 240 176 204T208 140 263 96 341 80ZM653 636H1071L1070 745Q1068 788 1058 833T1025 915 965 976 872 1000Q807 1000 765 968T699 888 664 781 653 670V636Z" glyph-name="ae" horiz-adv-x="1229" unicode="&#xe6;"/><glyph d="M632 81Q692 81 746 98T843 149 911 228 942 334H1057Q1053 257 1017 192T923 80 790 7 632-20Q513-20 425 25T279 145 191 317 161 520V562Q161 667 190 764T278 937 425 1057 631 1102Q721 1102 797 1074T930 994 1020 872 1057 717H942Q939 778 914 830T848 920 752 979 631 1000Q537 1000 471 962T362 862 301 722 281 562V520Q281 438 300 359T362 219 470 119 632 81ZM679 252 667 188Q700 183 729 171T782 139 818 89 832 17Q832-35 808-72T744-133 650-170 538-183L531-105Q564-105 600-99T665-80 713-43 733 15Q733 47 719 67T681 98 624 115 558 125L586 252H679Z" glyph-name="ccedilla" horiz-adv-x="1229" unicode="&#xe7;"/><glyph d="M655-20Q542-20 449 22T290 136 187 304 149 510V553Q150 669 187 769T290 943 443 1059 632 1102Q740 1102 823 1063T962 957 1048 799 1079 606V533H269V510Q270 425 298 348T377 211 500 117 660 81Q760 80 841 118T979 228L1055 171Q1025 129 984 94T893 33 782-6 655-20ZM632 1000Q559 1000 498 973T391 896 315 781 274 635H959V648Q957 715 935 778T871 891 769 970 632 1000ZM943 1244H839L621 1510H765L943 1244Z" glyph-name="egrave" horiz-adv-x="1229" unicode="&#xe8;"/><glyph d="M655-20Q542-20 449 22T290 136 187 304 149 510V553Q150 669 187 769T290 943 443 1059 632 1102Q740 1102 823 1063T962 957 1048 799 1079 606V533H269V510Q270 425 298 348T377 211 500 117 660 81Q760 80 841 118T979 228L1055 171Q1025 129 984 94T893 33 782-6 655-20ZM632 1000Q559 1000 498 973T391 896 315 781 274 635H959V648Q957 715 935 778T871 891 769 970 632 1000ZM748 1508H893L663 1242H564L748 1508Z" glyph-name="eacute" horiz-adv-x="1229" unicode="&#xe9;"/><glyph d="M655-20Q542-20 449 22T290 136 187 304 149 510V553Q150 669 187 769T290 943 443 1059 632 1102Q740 1102 823 1063T962 957 1048 799 1079 606V533H269V510Q270 425 298 348T377 211 500 117 660 81Q760 80 841 118T979 228L1055 171Q1025 129 984 94T893 33 782-6 655-20ZM632 1000Q559 1000 498 973T391 896 315 781 274 635H959V648Q957 715 935 778T871 891 769 970 632 1000ZM905 1287V1270H794L625 1444 458 1270H350V1290L588 1529H664L905 1287Z" glyph-name="ecircumflex" horiz-adv-x="1229" unicode="&#xea;"/><glyph d="M655-20Q542-20 449 22T290 136 187 304 149 510V553Q150 669 187 769T290 943 443 1059 632 1102Q740 1102 823 1063T962 957 1048 799 1079 606V533H269V510Q270 425 298 348T377 211 500 117 660 81Q760 80 841 118T979 228L1055 171Q1025 129 984 94T893 33 782-6 655-20ZM632 1000Q559 1000 498 973T391 896 315 781 274 635H959V648Q957 715 935 778T871 891 769 970 632 1000ZM318 1408Q318 1441 340 1465T400 1489Q438 1489 460 1465T483 1408Q483 1376 461 1353T400 1329Q362 1329 340 1352T318 1408ZM756 1407Q756 1440 778 1464T838 1488Q876 1488 898 1464T921 1407Q921 1375 899 1352T838 1328Q800 1328 778 1351T756 1407Z" glyph-name="edieresis" horiz-adv-x="1229" unicode="&#xeb;"/><glyph d="M221 1082H723V106H1091V0H221V106H603V975H221V1082ZM981 1254H877L659 1520H803L981 1254Z" glyph-name="igrave" horiz-adv-x="1229" unicode="&#xec;"/><glyph d="M221 1082H723V106H1091V0H221V106H603V975H221V1082ZM786 1518H931L701 1252H602L786 1518Z" glyph-name="iacute" horiz-adv-x="1229" unicode="&#xed;"/><glyph d="M221 1082H723V106H1091V0H221V106H603V975H221V1082ZM943 1297V1280H832L663 1454 496 1280H388V1300L626 1539H702L943 1297Z" glyph-name="icircumflex" horiz-adv-x="1229" unicode="&#xee;"/><glyph d="M221 1082H723V106H1091V0H221V106H603V975H221V1082ZM356 1418Q356 1451 378 1475T438 1499Q476 1499 498 1475T521 1418Q521 1386 499 1363T438 1339Q400 1339 378 1362T356 1418ZM794 1417Q794 1450 816 1474T876 1498Q914 1498 936 1474T959 1417Q959 1385 937 1362T876 1338Q838 1338 816 1361T794 1417Z" glyph-name="idieresis" horiz-adv-x="1229" unicode="&#xef;"/><glyph d="M796 1293Q911 1169 974 1003T1038 623V552Q1038 435 1005 332T910 150 757 26 551-20Q450-20 365 17T218 121 121 276 86 466Q86 575 120 666T216 824 367 928 565 965Q665 965 753 926T901 817Q878 949 824 1052T690 1235L439 1096 388 1170 619 1297Q559 1345 489 1381T341 1446L380 1550Q583 1483 729 1358L955 1483 1007 1410 796 1293ZM918 625Q918 640 918 655T916 684Q896 724 861 756T779 812 678 848 565 861Q480 861 414 830T301 746 231 620 207 466Q207 389 232 320T303 198 413 114 555 83Q646 83 714 122T827 226 895 375 918 552V625Z" glyph-name="eth" horiz-adv-x="1229" unicode="&#xf0;"/><glyph d="M303 1082 312 879Q369 980 464 1040T680 1102Q858 1102 952 996T1047 693V0H927V691Q926 840 859 919T651 998Q593 998 541 979T445 927 368 849 313 751V0H193V1082H303ZM932 1502Q930 1461 917 1424T879 1359 820 1315 743 1298Q696 1298 663 1315T599 1353 538 1391 466 1408Q415 1407 387 1373T356 1289L277 1302Q278 1342 291 1379T329 1444 388 1488 466 1505Q508 1505 541 1488T606 1450 670 1412 743 1395Q768 1395 788 1405T822 1431 843 1470 853 1517L932 1502Z" glyph-name="ntilde" horiz-adv-x="1229" unicode="&#xf1;"/><glyph d="M131 557Q132 667 165 766T259 939 410 1058 613 1102Q727 1102 816 1058T968 940 1063 766 1097 557V524Q1096 414 1064 315T969 142 818 24 615-20Q501-20 412 23T260 141 165 315 131 524V557ZM251 524Q251 438 275 358T345 217 458 118 615 81Q703 81 770 118T883 216 953 358 977 524V557Q977 642 953 722T883 863 769 962 613 1000Q525 1000 458 963T345 864 275 722 251 557V524ZM933 1243H829L611 1509H755L933 1243Z" glyph-name="ograve" horiz-adv-x="1229" unicode="&#xf2;"/><glyph d="M131 557Q132 667 165 766T259 939 410 1058 613 1102Q727 1102 816 1058T968 940 1063 766 1097 557V524Q1096 414 1064 315T969 142 818 24 615-20Q501-20 412 23T260 141 165 315 131 524V557ZM251 524Q251 438 275 358T345 217 458 118 615 81Q703 81 770 118T883 216 953 358 977 524V557Q977 642 953 722T883 863 769 962 613 1000Q525 1000 458 963T345 864 275 722 251 557V524ZM738 1507H883L653 1241H554L738 1507Z" glyph-name="oacute" horiz-adv-x="1229" unicode="&#xf3;"/><glyph d="M131 557Q132 667 165 766T259 939 410 1058 613 1102Q727 1102 816 1058T968 940 1063 766 1097 557V524Q1096 414 1064 315T969 142 818 24 615-20Q501-20 412 23T260 141 165 315 131 524V557ZM251 524Q251 438 275 358T345 217 458 118 615 81Q703 81 770 118T883 216 953 358 977 524V557Q977 642 953 722T883 863 769 962 613 1000Q525 1000 458 963T345 864 275 722 251 557V524ZM895 1286V1269H784L615 1443 448 1269H340V1289L578 1528H654L895 1286Z" glyph-name="ocircumflex" horiz-adv-x="1229" unicode="&#xf4;"/><glyph d="M131 557Q132 667 165 766T259 939 410 1058 613 1102Q727 1102 816 1058T968 940 1063 766 1097 557V524Q1096 414 1064 315T969 142 818 24 615-20Q501-20 412 23T260 141 165 315 131 524V557ZM251 524Q251 438 275 358T345 217 458 118 615 81Q703 81 770 118T883 216 953 358 977 524V557Q977 642 953 722T883 863 769 962 613 1000Q525 1000 458 963T345 864 275 722 251 557V524ZM941 1502Q939 1461 926 1424T888 1359 829 1315 752 1298Q705 1298 672 1315T608 1353 547 1391 475 1408Q424 1407 396 1373T365 1289L286 1302Q287 1342 300 1379T338 1444 397 1488 475 1505Q517 1505 550 1488T615 1450 679 1412 752 1395Q777 1395 797 1405T831 1431 852 1470 862 1517L941 1502Z" glyph-name="otilde" horiz-adv-x="1229" unicode="&#xf5;"/><glyph d="M131 557Q132 667 165 766T259 939 410 1058 613 1102Q727 1102 816 1058T968 940 1063 766 1097 557V524Q1096 414 1064 315T969 142 818 24 615-20Q501-20 412 23T260 141 165 315 131 524V557ZM251 524Q251 438 275 358T345 217 458 118 615 81Q703 81 770 118T883 216 953 358 977 524V557Q977 642 953 722T883 863 769 962 613 1000Q525 1000 458 963T345 864 275 722 251 557V524ZM565 1407Q565 1440 587 1464T647 1488Q685 1488 707 1464T730 1407Q730 1375 708 1352T647 1328Q609 1328 587 1351T565 1407ZM1003 1406Q1003 1439 1025 1463T1085 1487Q1123 1487 1145 1463T1168 1406Q1168 1374 1146 1351T1085 1327Q1047 1327 1025 1350T1003 1406Z" glyph-name="odieresis" horiz-adv-x="1229" unicode="&#xf6;"/><glyph d="M1113 644H115V760H1113V644ZM539 1087Q539 1120 561 1144T621 1168Q659 1168 681 1144T704 1087Q704 1055 682 1032T621 1008Q583 1008 561 1031T539 1087ZM538 292Q538 324 560 348T620 372Q658 372 680 348T703 292Q703 259 681 236T620 212Q582 212 560 235T538 292Z" glyph-name="divide" horiz-adv-x="1229" unicode="&#xf7;"/><glyph d="M131 557Q132 667 165 766T259 939 410 1058 613 1102Q667 1102 715 1092T806 1062L880 1214H973L879 1022Q931 986 971 936T1039 825 1081 697 1097 557V524Q1096 414 1064 315T969 142 818 24 615-20Q552-20 497-7T394 32L310-140H217L324 78Q277 115 242 164T182 270 144 391 131 524V557ZM977 557Q977 610 967 662T939 761 893 849 829 921L441 127Q516 81 615 81 703 81 770 118T883 216 953 358 977 524V557ZM251 524Q251 424 282 334T374 181L759 967Q727 983 691 991T613 1000Q525 1000 458 963T345 864 275 722 251 557V524Z" glyph-name="oslash" horiz-adv-x="1229" unicode="&#xf8;"/><glyph d="M919 169Q865 80 777 30T567-20Q477-20 409 9T294 94 223 231 198 416V1082H317V414Q319 251 383 167T581 83Q716 83 800 145T917 313L916 1082H1037V0H925L919 169ZM916 1235H812L594 1501H738L916 1235Z" glyph-name="ugrave" horiz-adv-x="1229" unicode="&#xf9;"/><glyph d="M919 169Q865 80 777 30T567-20Q477-20 409 9T294 94 223 231 198 416V1082H317V414Q319 251 383 167T581 83Q716 83 800 145T917 313L916 1082H1037V0H925L919 169ZM721 1499H866L636 1233H537L721 1499Z" glyph-name="uacute" horiz-adv-x="1229" unicode="&#xfa;"/><glyph d="M919 169Q865 80 777 30T567-20Q477-20 409 9T294 94 223 231 198 416V1082H317V414Q319 251 383 167T581 83Q716 83 800 145T917 313L916 1082H1037V0H925L919 169ZM878 1278V1261H767L598 1435 431 1261H323V1281L561 1520H637L878 1278Z" glyph-name="ucircumflex" horiz-adv-x="1229" unicode="&#xfb;"/><glyph d="M919 169Q865 80 777 30T567-20Q477-20 409 9T294 94 223 231 198 416V1082H317V414Q319 251 383 167T581 83Q716 83 800 145T917 313L916 1082H1037V0H925L919 169ZM548 1399Q548 1432 570 1456T630 1480Q668 1480 690 1456T713 1399Q713 1367 691 1344T630 1320Q592 1320 570 1343T548 1399ZM986 1398Q986 1431 1008 1455T1068 1479Q1106 1479 1128 1455T1151 1398Q1151 1366 1129 1343T1068 1319Q1030 1319 1008 1342T986 1398Z" glyph-name="udieresis" horiz-adv-x="1229" unicode="&#xfc;"/><glyph d="M600 220 622 161 1013 1082H1149L590-173Q568-222 538-269T467-353 373-414 250-437Q226-437 197-433T148-423L162-323Q179-325 204-327T247-330Q293-330 331-312T398-266 450-202 488-132L562 28 76 1082H211L600 220ZM754 1499H899L669 1233H570L754 1499Z" glyph-name="yacute" horiz-adv-x="1229" unicode="&#xfd;"/><glyph d="M1068 530Q1068 425 1044 326T968 150 840 27 655-20Q550-20 463 20T316 137V-416H196V1546H316V933Q374 1014 460 1058T653 1102Q761 1102 839 1057T968 935 1043 759 1068 551V530ZM948 551Q948 632 931 712T875 855 776 958 626 998Q572 998 525 983T438 942 368 878 316 796V265Q360 180 441 131T628 81Q716 81 777 121T876 224 931 368 948 530V551Z" glyph-name="thorn" horiz-adv-x="1229" unicode="&#xfe;"/><glyph d="M600 220 622 161 1013 1082H1149L590-173Q568-222 538-269T467-353 373-414 250-437Q226-437 197-433T148-423L162-323Q179-325 204-327T247-330Q293-330 331-312T398-266 450-202 488-132L562 28 76 1082H211L600 220ZM324 1399Q324 1432 346 1456T406 1480Q444 1480 466 1456T489 1399Q489 1367 467 1344T406 1320Q368 1320 346 1343T324 1399ZM762 1398Q762 1431 784 1455T844 1479Q882 1479 904 1455T927 1398Q927 1366 905 1343T844 1319Q806 1319 784 1342T762 1398Z" glyph-name="ydieresis" horiz-adv-x="1229" unicode="&#xff;"/><glyph d="M1162 686H77V788H1162V686Z" glyph-name="endash" horiz-adv-x="1229" unicode="&#x2013;"/><glyph d="M1170 686H85V788H1170V686Z" glyph-name="emdash" horiz-adv-x="1229" unicode="&#x2014;"/><glyph d="M527 1229Q527 1272 536 1317T562 1404 606 1486 666 1559L735 1508Q690 1444 668 1377T644 1232V1105H527V1229Z" glyph-name="quoteleft" horiz-adv-x="1229" unicode="&#x2018;"/><glyph d="M702 1422Q702 1378 693 1334T666 1247 622 1165 562 1092L493 1144Q538 1207 560 1274T584 1420V1546H702V1422Z" glyph-name="quoteright" horiz-adv-x="1229" unicode="&#x2019;"/><glyph d="M687 88Q687 45 678 1T651-86 607-168 547-241L476-189Q521-126 544-59T567 86V226H687V88Z" glyph-name="quotesinglbase" horiz-adv-x="1229" unicode="&#x201a;"/><glyph d="M365 1229Q365 1272 374 1317T400 1404 444 1486 504 1559L573 1508Q528 1444 506 1377T482 1232V1105H365V1229ZM675 1229Q675 1272 684 1317T710 1404 754 1486 814 1559L883 1508Q838 1444 816 1377T792 1232V1105H675V1229Z" glyph-name="quotedblleft" horiz-adv-x="1229" unicode="&#x201c;"/><glyph d="M831 1422Q831 1378 822 1334T795 1247 751 1165 691 1092L622 1144Q667 1207 689 1274T713 1420V1546H831V1422ZM885 1422Q885 1378 876 1334T849 1247 805 1165 745 1092L676 1144Q721 1207 743 1274T767 1420V1546H885V1422Z" glyph-name="quotedblright" horiz-adv-x="1229" unicode="&#x201d;"/><glyph d="M554 87Q554 44 545 0T519-87 475-169 415-242L344-190Q389-126 411-60T435 85V225H554V87ZM803 87Q803 44 794 0T768-87 724-169 664-242L593-190Q638-126 660-60T684 85V225H803V87Z" glyph-name="quotedblbase" horiz-adv-x="1229" unicode="&#x201e;"/><glyph d="M428 760Q429 799 442 832T480 889 538 926 613 939Q654 939 688 926T746 889 784 832 799 760V717Q798 678 785 646T747 590 689 553 614 540Q573 540 539 553T481 589 443 645 428 717V760Z" glyph-name="bullet" horiz-adv-x="1229" unicode="&#x2022;"/><glyph d="M538 555 814 167H709L414 546V565L709 944H814L538 555Z" glyph-name="guilsinglleft" horiz-adv-x="1229" unicode="&#x2039;"/><glyph d="M520 944 814 560V541L520 162H414L690 550 414 944H520Z" glyph-name="guilsinglright" horiz-adv-x="1229" unicode="&#x203a;"/></font>
</defs>
</svg>
