<svg xmlns="http://www.w3.org/2000/svg" viewBox="0 0 36.1 36"><defs><style>.cls-1{fill:#235175;}.cls-2{fill:#4492cc;}.cls-3{fill:none;}</style></defs><title>Layer 2</title><g id="Layer_2" data-name="Layer 2"><g id="Layer_2-2" data-name="Layer 2"><g id="Layer_1-2" data-name="Layer 1"><path class="cls-1" d="M33.4,0H2.7A2.67,2.67,0,0,0,0,2.6V33.4A2.67,2.67,0,0,0,2.7,36H33.4a2.67,2.67,0,0,0,2.7-2.6V2.6A2.67,2.67,0,0,0,33.4,0Z"/><path class="cls-2" d="M5.4,13.5h5.3V30.7H5.4ZM8.1,5A3.1,3.1,0,1,1,5,8.1,3.05,3.05,0,0,1,8.1,5"/><path class="cls-2" d="M14.1,13.5h5.1v2.3h.1A5.6,5.6,0,0,1,24.4,13c5.4,0,6.4,3.6,6.4,8.2v9.4H25.5V22.2c0-2,0-4.6-2.8-4.6s-3.2,2.2-3.2,4.4v8.5H14.2l-.1-17Z"/></g><rect class="cls-3" width="36" height="36"/></g></g></svg>