<?xml version="1.0" encoding="utf-8"?>
<!-- Generator: Adobe Illustrator 22.0.1, SVG Export Plug-In . SVG Version: 6.00 Build 0)  -->
<svg version="1.1" id="Layer_1" xmlns="http://www.w3.org/2000/svg" xmlns:xlink="http://www.w3.org/1999/xlink" x="0px" y="0px"
	 viewBox="0 0 240 240" style="enable-background:new 0 0 240 240;" xml:space="preserve">
<style type="text/css">
	.st0{fill:#235175;}
	.st1{fill:#4492CC;}
	.st2{fill:#1B84C9;}
	.st3{fill:#2B79B0;}
</style>
<circle class="st0" cx="120" cy="120" r="120"/>
<path class="st1" d="M98,175c-3.9,0-3.2-1.5-4.6-5.2L82,132.2L170,80"/>
<path class="st2" d="M98,175c3,0,4.3-1.4,6-3l16-15.6l-20-12"/>
<path class="st3" d="M100,144.4l48.4,35.7c5.5,3,9.5,1.5,10.9-5.1L179,82.3c2-8.1-3.1-11.7-8.4-9.3L55,117.5
	c-7.9,3.2-7.8,7.6-1.4,9.5l29.7,9.3L152,93c3.2-2,6.2-0.9,3.8,1.3"/>
</svg>
