<?xml version="1.0" encoding="utf-8"?>
<!-- Generator: Adobe Illustrator 22.0.1, SVG Export Plug-In . SVG Version: 6.00 Build 0)  -->
<svg version="1.2" baseProfile="tiny" id="Layer_1" xmlns="http://www.w3.org/2000/svg" xmlns:xlink="http://www.w3.org/1999/xlink"
	 x="0px" y="0px" viewBox="0 0 612 792" xml:space="preserve">
<g>
	<g>
		<path display="none" fill="#D6D6D6" d="M-157.6,860.4c0-309.3,0-618.6,0-927.9c309.3,0,618.6,0,927.9,0c0,309.3,0,618.6,0,927.9
			C461,860.4,151.7,860.4-157.6,860.4z M16.4,773.2c193.3,0,386.3,0,579.2,0c0-251.2,0-502.2,0-753.1c-193.2,0-386.1,0-579.2,0
			C16.4,271.2,16.4,522.1,16.4,773.2z"/>
		<path fill="#D6D6D6" d="M16.4,773.2c0-251.1,0-502,0-753.1c193.1,0,386,0,579.2,0c0,250.9,0,501.9,0,753.1
			C402.6,773.2,209.6,773.2,16.4,773.2z M537.7,78.1c-67.7,0-135.1,0-202.8,0c0,9.6,0,19.1,0,28.6c-19.4,0-38.5,0-58,0
			c0-9.7,0-19.2,0-28.7c-67.7,0-135.1,0-202.6,0c0,212.5,0,424.8,0,637.2c154.5,0,308.9,0,463.4,0
			C537.7,502.9,537.7,290.6,537.7,78.1z"/>
		<path display="none" fill="#D6D6D6" d="M537.7,78.1c0,212.5,0,424.7,0,637.2c-154.5,0-308.9,0-463.4,0c0-212.4,0-424.8,0-637.2
			c67.5,0,134.9,0,202.6,0c0,9.5,0,19,0,28.7c19.5,0,38.6,0,58,0c0-9.5,0-19,0-28.6C402.6,78.1,470.1,78.1,537.7,78.1z M277,309.9
			c0,1.4,0,2.4,0,3.5c0,19,0,38.1,0,57.1c0,2-0.6,3-2.5,3.7c-9.6,3.7-18.4,8.9-26,15.9c-22.8,21-32.8,46.9-28.3,77.9
			c2.9,20,12.2,36.9,27.1,50.4c20,18.2,43.6,25.8,70.4,22.3C338.4,538,356,528.6,370,513c17.9-19.9,25.9-43.4,22-69.9
			c-4.9-33.2-24-56-54.8-69.1c-1.7-0.7-2.2-1.5-2.2-3.4c0.1-19.2,0-38.4,0-57.7c0-1,0-2.1,0-3.2C315.6,309.9,296.5,309.9,277,309.9z
			 M277.3,136c0,19.4,0,38.5,0,57.6c19.4,0,38.5,0,57.6,0c0-19.3,0-38.4,0-57.6C315.6,136,296.5,136,277.3,136z M277.3,223
			c0,19.4,0,38.5,0,57.6c19.4,0,38.5,0,57.6,0c0-19.3,0-38.4,0-57.6C315.6,223,296.5,223,277.3,223z"/>
		<path fill="#D6D6D6" d="M277,309.9c19.4,0,38.5,0,58,0c0,1.1,0,2.1,0,3.2c0,19.2,0,38.4,0,57.7c0,1.8,0.5,2.6,2.2,3.4
			c30.8,13.1,49.9,35.9,54.8,69.1c3.9,26.5-4.1,50-22,69.9c-14,15.5-31.6,24.9-52.3,27.7c-26.8,3.5-50.4-4.2-70.4-22.3
			c-14.9-13.6-24.2-30.5-27.1-50.4c-4.5-30.9,5.5-56.8,28.3-77.9c7.6-7,16.4-12.2,26-15.9c2-0.8,2.5-1.7,2.5-3.7
			c-0.1-19,0-38.1,0-57.1C277,312.3,277,311.3,277,309.9z M335,454.7c0-16.3-12.8-29-29.1-29c-16.1,0-28.9,12.7-28.9,28.8
			c0,16.3,12.7,29.1,28.9,29.1C322.2,483.7,335,470.9,335,454.7z"/>
		<path fill="#D6D6D6" d="M277.3,136c19.3,0,38.4,0,57.6,0c0,19.2,0,38.3,0,57.6c-19.1,0-38.2,0-57.6,0
			C277.3,174.6,277.3,155.4,277.3,136z"/>
		<path fill="#D6D6D6" d="M277.3,223c19.3,0,38.4,0,57.6,0c0,19.2,0,38.3,0,57.6c-19.1,0-38.2,0-57.6,0
			C277.3,261.5,277.3,242.4,277.3,223z"/>
		<path display="none" fill="#D6D6D6" d="M335,454.7c0,16.3-12.8,29-29.1,29c-16.2,0-28.9-12.8-28.9-29.1
			c0-16.1,12.8-28.8,28.9-28.8C322.2,425.7,335,438.4,335,454.7z"/>
	</g>
</g>
</svg>
